<svg xmlns="http://www.w3.org/2000/svg" fill="#fff" viewBox="0 0 37 44" width="128px"><path d="M11.75,17.3c0,0.04,0,0.08,0,0.12c0,1.39-0.9,1.99-2.01,1.35c-1.11-0.64-2.01-2.28-2.01-3.67   c0-0.04,0-0.08,0-0.12L1,11.09v21.88l17.5,10.1V21.19L11.75,17.3z"></path><path d="M20.5,12.25c0,0.04,0,0.08,0,0.12c0,1.39-0.9,1.99-2.01,1.35c-1.11-0.64-2.01-2.28-2.01-3.67   c0-0.04,0-0.08,0-0.12L9.75,6.05v7.83l10.72,6.19v14.05l6.78,3.92V16.16L20.5,12.25z"></path><path d="M29.25,7.21c0,0.04,0,0.08,0,0.12c0,1.39-0.9,1.99-2.01,1.35c-1.11-0.64-2.01-2.28-2.01-3.67   c0-0.04,0-0.08,0-0.12L18.5,1v7.83l10.72,6.19v14.05L36,32.98V11.11L29.25,7.21z"></path></svg>