<svg xmlns="http://www.w3.org/2000/svg" width="879" height="571" fill="none" viewBox="0 0 879 571">
  <path fill="#000" d="M0 0h320v571H0z"/>
  <path stroke="#fff" d="M30 55.5h260a9.5 9.5 0 0 1 9.5 9.5v476a9.5 9.5 0 0 1-9.5 9.5H30a9.5 9.5 0 0 1-9.5-9.5V65a9.5 9.5 0 0 1 9.5-9.5Z"/>
  <rect width="239" height="39" x="40.5" y="71.5" stroke="#fff" rx="9.5"/>
  <rect width="239" height="39" x="40.5" y="131.5" stroke="#fff" rx="9.5"/>
  <rect width="239" height="39" x="40.5" y="191.5" stroke="#fff" rx="9.5"/>
  <rect width="239" height="39" x="40.5" y="251.5" stroke="#fff" rx="9.5"/>
  <rect width="239" height="39" x="40.5" y="311.5" stroke="#fff" rx="9.5"/>
  <rect width="239" height="39" x="40.5" y="371.5" stroke="#fff" rx="9.5"/>
  <rect width="239" height="39" x="40.5" y="431.5" stroke="#fff" rx="9.5"/>
  <rect width="239" height="39" x="40.5" y="491.5" stroke="#fff" rx="9.5"/>
  <path fill="#fff" d="m88.284 33-4.773-17.454h2.148l3.648 14.215h.17l3.716-14.215h2.386l3.717 14.215h.17l3.648-14.215h2.147L100.489 33h-2.182l-3.853-13.91h-.136L90.466 33h-2.182Zm21.972.307c-.83 0-1.583-.156-2.259-.469a3.88 3.88 0 0 1-1.611-1.372c-.397-.602-.596-1.33-.596-2.182 0-.75.148-1.358.443-1.824a3.12 3.12 0 0 1 1.185-1.108 6.213 6.213 0 0 1 1.636-.596 19.899 19.899 0 0 1 1.815-.324 82.224 82.224 0 0 1 1.935-.23c.5-.057.864-.15 1.091-.282.233-.13.349-.358.349-.681v-.069c0-.84-.23-1.494-.69-1.96-.455-.466-1.145-.699-2.071-.699-.96 0-1.713.21-2.259.631-.545.42-.929.87-1.15 1.347l-1.909-.682c.341-.796.795-1.415 1.363-1.858a5.112 5.112 0 0 1 1.875-.938 7.788 7.788 0 0 1 2.012-.272c.42 0 .903.05 1.449.153a4.63 4.63 0 0 1 1.593.605c.517.307.946.77 1.287 1.39.341.619.512 1.448.512 2.488V33h-2.012v-1.773h-.102c-.136.284-.364.588-.682.912-.318.324-.741.6-1.27.827-.528.227-1.173.34-1.934.34Zm.306-1.807c.796 0 1.466-.156 2.012-.469.551-.312.966-.716 1.244-1.21a3.085 3.085 0 0 0 .426-1.56v-1.84c-.085.102-.272.195-.562.28-.284.08-.614.151-.989.214-.369.057-.73.108-1.082.153-.347.04-.628.074-.844.102a7.682 7.682 0 0 0-1.466.333c-.449.148-.812.372-1.091.673-.272.296-.409.699-.409 1.21 0 .7.259 1.228.776 1.586.522.352 1.184.528 1.985.528Zm18.638-8.66-1.807.512a3.355 3.355 0 0 0-.503-.878 2.44 2.44 0 0 0-.886-.715c-.375-.188-.856-.282-1.441-.282-.801 0-1.469.185-2.003.554-.528.364-.792.827-.792 1.39 0 .5.182.894.545 1.184.364.29.932.531 1.705.724l1.943.478c1.17.284 2.043.719 2.616 1.304.574.58.861 1.326.861 2.241 0 .75-.216 1.42-.648 2.012-.426.59-1.022 1.056-1.789 1.397-.767.341-1.659.512-2.676.512-1.336 0-2.441-.29-3.316-.87-.875-.58-1.429-1.426-1.662-2.54l1.909-.477c.182.705.526 1.233 1.032 1.586.511.352 1.179.528 2.002.528.938 0 1.682-.199 2.233-.597.557-.403.836-.886.836-1.448a1.52 1.52 0 0 0-.478-1.142c-.318-.313-.806-.546-1.466-.7l-2.181-.51c-1.199-.285-2.08-.725-2.642-1.322-.557-.602-.836-1.355-.836-2.258 0-.739.208-1.392.623-1.96.42-.569.991-1.015 1.713-1.339.727-.323 1.551-.485 2.471-.485 1.296 0 2.313.284 3.051.852.745.568 1.273 1.318 1.586 2.25ZM132.466 33V19.91h1.943v2.044h.171a3.286 3.286 0 0 1 1.321-1.627c.608-.392 1.338-.588 2.19-.588.864 0 1.582.196 2.156.588.58.386 1.031.929 1.355 1.627h.137a3.813 3.813 0 0 1 1.508-1.61c.671-.404 1.475-.605 2.412-.605 1.171 0 2.128.366 2.872 1.1.745.726 1.117 1.86 1.117 3.4V33h-2.012v-8.761c0-.966-.264-1.657-.792-2.071-.529-.415-1.151-.622-1.867-.622-.92 0-1.633.278-2.139.835-.506.55-.758 1.25-.758 2.096V33h-2.046v-8.966c0-.744-.241-1.344-.724-1.798-.483-.46-1.105-.69-1.867-.69-.523 0-1.011.139-1.466.417a3.157 3.157 0 0 0-1.091 1.16c-.272.488-.409 1.053-.409 1.695V33h-2.011Zm26.348.273c-1.261 0-2.35-.279-3.264-.836-.909-.562-1.611-1.346-2.105-2.352-.489-1.011-.733-2.187-.733-3.528 0-1.341.244-2.523.733-3.546.494-1.028 1.181-1.83 2.062-2.403.886-.58 1.921-.87 3.102-.87.682 0 1.355.114 2.02.341a5.01 5.01 0 0 1 1.816 1.108c.545.506.98 1.177 1.304 2.012.323.835.485 1.863.485 3.085v.852h-10.091v-1.738h8.046c0-.739-.148-1.398-.443-1.977a3.34 3.34 0 0 0-1.245-1.373c-.534-.335-1.164-.502-1.892-.502-.801 0-1.494.198-2.079.596a3.918 3.918 0 0 0-1.338 1.534 4.5 4.5 0 0 0-.469 2.029v1.159c0 .988.17 1.826.511 2.514.347.682.827 1.201 1.441 1.56.613.352 1.326.528 2.139.528.528 0 1.006-.074 1.432-.222.432-.153.804-.38 1.116-.681a3.1 3.1 0 0 0 .725-1.142l1.943.545a4.312 4.312 0 0 1-1.031 1.738c-.483.495-1.08.881-1.79 1.16-.71.272-1.509.409-2.395.409Zm8.48-.273V19.91h1.943v1.976h.137c.238-.647.67-1.173 1.295-1.576a3.814 3.814 0 0 1 2.114-.605c.147 0 .332.002.554.008.221.006.389.014.502.026v2.045a5.917 5.917 0 0 0-.468-.077 4.62 4.62 0 0 0-.759-.06c-.636 0-1.204.134-1.704.401a3.012 3.012 0 0 0-1.176 1.091c-.285.46-.427.986-.427 1.577V33h-2.011Zm15.952 0V15.546h5.898c1.364 0 2.483.232 3.358.698.875.46 1.523 1.094 1.943 1.9.421.808.631 1.725.631 2.754 0 1.028-.21 1.94-.631 2.736-.42.795-1.065 1.42-1.934 1.875-.87.448-1.98.673-3.333.673h-4.772v-1.91h4.704c.932 0 1.682-.136 2.25-.408.574-.273.989-.66 1.244-1.16.262-.505.392-1.107.392-1.806 0-.7-.13-1.31-.392-1.833-.261-.522-.679-.926-1.252-1.21-.574-.29-1.333-.434-2.276-.434h-3.716V33h-2.114Zm8.216-7.84 4.296 7.84h-2.455l-4.227-7.84h2.386Zm10.716 8.147c-.83 0-1.583-.156-2.259-.469a3.88 3.88 0 0 1-1.611-1.372c-.397-.602-.596-1.33-.596-2.182 0-.75.147-1.358.443-1.824.295-.471.69-.84 1.184-1.108a6.233 6.233 0 0 1 1.637-.596 19.899 19.899 0 0 1 1.815-.324 82.224 82.224 0 0 1 1.935-.23c.5-.057.863-.15 1.091-.282.233-.13.349-.358.349-.681v-.069c0-.84-.23-1.494-.69-1.96-.455-.466-1.145-.699-2.071-.699-.96 0-1.713.21-2.259.631-.545.42-.929.87-1.15 1.347l-1.909-.682c.341-.796.795-1.415 1.363-1.858a5.112 5.112 0 0 1 1.875-.938 7.788 7.788 0 0 1 2.012-.272c.42 0 .903.05 1.449.153a4.63 4.63 0 0 1 1.593.605c.517.307.946.77 1.287 1.39.341.619.512 1.448.512 2.488V33h-2.012v-1.773h-.102c-.136.284-.364.588-.682.912-.318.324-.741.6-1.27.827-.528.227-1.173.34-1.934.34Zm.306-1.807c.796 0 1.466-.156 2.012-.469.551-.312.966-.716 1.244-1.21a3.085 3.085 0 0 0 .426-1.56v-1.84c-.085.102-.273.195-.562.28-.284.08-.614.151-.989.214-.369.057-.73.108-1.082.153-.347.04-.628.074-.844.102a7.682 7.682 0 0 0-1.466.333c-.449.148-.812.372-1.091.673-.273.296-.409.699-.409 1.21 0 .7.259 1.228.776 1.586.522.352 1.184.528 1.985.528Zm14.683 1.773c-1.227 0-2.284-.29-3.171-.87-.886-.58-1.568-1.377-2.045-2.394-.477-1.018-.716-2.18-.716-3.486 0-1.33.244-2.503.733-3.52.494-1.023 1.182-1.821 2.063-2.395.886-.58 1.92-.87 3.102-.87.92 0 1.75.171 2.488.512.739.34 1.344.818 1.816 1.432.471.614.764 1.33.878 2.148h-2.012c-.153-.597-.494-1.125-1.022-1.586-.523-.466-1.228-.698-2.114-.698-.784 0-1.472.204-2.063.613-.585.404-1.042.975-1.372 1.713-.324.733-.486 1.594-.486 2.582 0 1.012.16 1.893.478 2.643.324.75.778 1.332 1.363 1.747.591.415 1.284.622 2.08.622.523 0 .997-.091 1.423-.273a2.944 2.944 0 0 0 1.083-.784c.295-.34.505-.75.63-1.227h2.012a4.663 4.663 0 0 1-.844 2.088c-.443.614-1.031 1.102-1.764 1.466-.728.358-1.574.537-2.54.537Zm9.963-5.046-.034-2.488h.409l5.727-5.83h2.489l-6.102 6.17h-.171l-2.318 2.148ZM225.255 33V15.546h2.011V33h-2.011Zm8.318 0-5.113-6.477 1.431-1.398L236.13 33h-2.557Zm-86.278 50.454V98h-1.704l-7.926-11.42h-.142V98h-1.762V83.454h1.705l7.954 11.45h.142v-11.45h1.733Zm7.73 14.773c-.985 0-1.849-.234-2.593-.703-.738-.469-1.316-1.124-1.733-1.967-.412-.843-.618-1.828-.618-2.955 0-1.136.206-2.128.618-2.976.417-.847.995-1.505 1.733-1.974.744-.469 1.608-.703 2.593-.703.984 0 1.846.234 2.585.703.743.469 1.321 1.127 1.733 1.974.416.848.625 1.84.625 2.976 0 1.127-.209 2.112-.625 2.955-.412.843-.99 1.498-1.733 1.967-.739.469-1.601.703-2.585.703Zm0-1.505c.748 0 1.363-.192 1.846-.576a3.392 3.392 0 0 0 1.073-1.513 5.792 5.792 0 0 0 .348-2.03c0-.73-.116-1.41-.348-2.04a3.437 3.437 0 0 0-1.073-1.526c-.483-.388-1.098-.583-1.846-.583-.749 0-1.364.195-1.847.583a3.437 3.437 0 0 0-1.073 1.527 5.851 5.851 0 0 0-.348 2.038c0 .73.116 1.406.348 2.031.232.626.59 1.13 1.073 1.513.483.384 1.098.576 1.847.576Zm11.621 1.505c-.909 0-1.712-.23-2.408-.689-.696-.464-1.241-1.117-1.634-1.96-.393-.847-.589-1.849-.589-3.004 0-1.146.196-2.14.589-2.983.393-.843.94-1.494 1.641-1.953.701-.46 1.51-.69 2.429-.69.71 0 1.271.12 1.683.356.417.232.734.497.952.795.222.294.395.535.518.725h.142v-5.37h1.677V98h-1.62v-1.676h-.199c-.123.199-.298.45-.525.753-.227.298-.552.566-.973.802-.422.232-.983.348-1.683.348Zm.227-1.505c.672 0 1.24-.176 1.704-.526.464-.355.817-.845 1.059-1.47.241-.63.362-1.357.362-2.18 0-.815-.119-1.528-.355-2.138-.237-.616-.587-1.094-1.051-1.435-.464-.346-1.037-.519-1.719-.519-.71 0-1.302.183-1.776.547-.468.36-.821.85-1.058 1.47-.232.616-.348 1.307-.348 2.075 0 .776.118 1.481.355 2.116.242.63.597 1.132 1.066 1.506.473.369 1.06.554 1.761.554Zm12.649 1.505c-1.051 0-1.958-.232-2.72-.696-.758-.469-1.342-1.122-1.754-1.96-.408-.843-.611-1.823-.611-2.94 0-1.118.203-2.103.611-2.955.412-.857.984-1.525 1.718-2.003.739-.483 1.601-.724 2.586-.724a5.17 5.17 0 0 1 1.683.284c.554.19 1.058.497 1.513.923.454.422.816.98 1.086 1.676.27.696.405 1.553.405 2.571v.71h-8.409v-1.448h6.705c0-.616-.124-1.165-.37-1.648a2.778 2.778 0 0 0-1.037-1.143c-.445-.28-.97-.42-1.576-.42-.668 0-1.246.166-1.733.498a3.266 3.266 0 0 0-1.115 1.278 3.748 3.748 0 0 0-.391 1.69v.966c0 .824.142 1.523.426 2.096a3.076 3.076 0 0 0 1.2 1.3c.512.293 1.106.44 1.783.44.44 0 .838-.062 1.193-.185.36-.128.67-.317.931-.568.26-.256.461-.573.603-.952l1.62.455a3.593 3.593 0 0 1-.86 1.449 4.182 4.182 0 0 1-1.491.965c-.592.228-1.257.341-1.996.341Z"/>
  <path fill="#fff" d="M147.295 83.454V98h-1.704l-7.926-11.42h-.142V98h-1.762V83.454h1.705l7.954 11.45h.142v-11.45h1.733Zm7.73 14.773c-.985 0-1.849-.234-2.593-.703-.738-.469-1.316-1.124-1.733-1.967-.412-.843-.618-1.828-.618-2.955 0-1.136.206-2.128.618-2.976.417-.847.995-1.505 1.733-1.974.744-.469 1.608-.703 2.593-.703.984 0 1.846.234 2.585.703.743.469 1.321 1.127 1.733 1.974.416.848.625 1.84.625 2.976 0 1.127-.209 2.112-.625 2.955-.412.843-.99 1.498-1.733 1.967-.739.469-1.601.703-2.585.703Zm0-1.505c.748 0 1.363-.192 1.846-.576a3.392 3.392 0 0 0 1.073-1.513 5.792 5.792 0 0 0 .348-2.03c0-.73-.116-1.41-.348-2.04a3.437 3.437 0 0 0-1.073-1.526c-.483-.388-1.098-.583-1.846-.583-.749 0-1.364.195-1.847.583a3.437 3.437 0 0 0-1.073 1.527 5.851 5.851 0 0 0-.348 2.038c0 .73.116 1.406.348 2.031.232.626.59 1.13 1.073 1.513.483.384 1.098.576 1.847.576Zm11.621 1.505c-.909 0-1.712-.23-2.408-.689-.696-.464-1.241-1.117-1.634-1.96-.393-.847-.589-1.849-.589-3.004 0-1.146.196-2.14.589-2.983.393-.843.94-1.494 1.641-1.953.701-.46 1.51-.69 2.429-.69.71 0 1.271.12 1.683.356.417.232.734.497.952.795.222.294.395.535.518.725h.142v-5.37h1.677V98h-1.62v-1.676h-.199c-.123.199-.298.45-.525.753-.227.298-.552.566-.973.802-.422.232-.983.348-1.683.348Zm.227-1.505c.672 0 1.24-.176 1.704-.526.464-.355.817-.845 1.059-1.47.241-.63.362-1.357.362-2.18 0-.815-.119-1.528-.355-2.138-.237-.616-.587-1.094-1.051-1.435-.464-.346-1.037-.519-1.719-.519-.71 0-1.302.183-1.776.547-.468.36-.821.85-1.058 1.47-.232.616-.348 1.307-.348 2.075 0 .776.118 1.481.355 2.116.242.63.597 1.132 1.066 1.506.473.369 1.06.554 1.761.554Zm12.649 1.505c-1.051 0-1.958-.232-2.72-.696-.758-.469-1.342-1.122-1.754-1.96-.408-.843-.611-1.823-.611-2.94 0-1.118.203-2.103.611-2.955.412-.857.984-1.525 1.718-2.003.739-.483 1.601-.724 2.586-.724a5.17 5.17 0 0 1 1.683.284c.554.19 1.058.497 1.513.923.454.422.816.98 1.086 1.676.27.696.405 1.553.405 2.571v.71h-8.409v-1.448h6.705c0-.616-.124-1.165-.37-1.648a2.778 2.778 0 0 0-1.037-1.143c-.445-.28-.97-.42-1.576-.42-.668 0-1.246.166-1.733.498a3.266 3.266 0 0 0-1.115 1.278 3.748 3.748 0 0 0-.391 1.69v.966c0 .824.142 1.523.426 2.096a3.076 3.076 0 0 0 1.2 1.3c.512.293 1.106.44 1.783.44.44 0 .838-.062 1.193-.185.36-.128.67-.317.931-.568.26-.256.461-.573.603-.952l1.62.455a3.593 3.593 0 0 1-.86 1.449 4.182 4.182 0 0 1-1.491.965c-.592.228-1.257.341-1.996.341Zm-32.227 105.228V218h-1.704l-7.926-11.42h-.142V218h-1.762v-14.545h1.705l7.954 11.448h.142v-11.448h1.733Zm7.73 14.772c-.985 0-1.849-.234-2.593-.703-.738-.469-1.316-1.124-1.733-1.967-.412-.843-.618-1.828-.618-2.955 0-1.136.206-2.128.618-2.976.417-.847.995-1.505 1.733-1.974.744-.469 1.608-.703 2.593-.703.984 0 1.846.234 2.585.703.743.469 1.321 1.127 1.733 1.974.416.848.625 1.84.625 2.976 0 1.127-.209 2.112-.625 2.955-.412.843-.99 1.498-1.733 1.967-.739.469-1.601.703-2.585.703Zm0-1.505c.748 0 1.363-.192 1.846-.576a3.387 3.387 0 0 0 1.073-1.512 5.797 5.797 0 0 0 .348-2.032 5.85 5.85 0 0 0-.348-2.038 3.433 3.433 0 0 0-1.073-1.527c-.483-.388-1.098-.582-1.846-.582-.749 0-1.364.194-1.847.582a3.433 3.433 0 0 0-1.073 1.527 5.85 5.85 0 0 0-.348 2.038c0 .729.116 1.407.348 2.032.232.625.59 1.129 1.073 1.512.483.384 1.098.576 1.847.576Zm11.621 1.505c-.909 0-1.712-.229-2.408-.689-.696-.464-1.241-1.117-1.634-1.96-.393-.847-.589-1.849-.589-3.004 0-1.146.196-2.14.589-2.983.393-.843.94-1.494 1.641-1.953.701-.459 1.51-.689 2.429-.689.71 0 1.271.118 1.683.355.417.232.734.497.952.795.222.294.395.535.518.725h.142v-5.369h1.677V218h-1.62v-1.676h-.199c-.123.199-.298.45-.525.753-.227.298-.552.566-.973.802-.422.232-.983.348-1.683.348Zm.227-1.505c.672 0 1.24-.176 1.704-.526.464-.355.817-.845 1.059-1.47.241-.63.362-1.357.362-2.181 0-.814-.119-1.527-.355-2.137-.237-.616-.587-1.094-1.051-1.435-.464-.346-1.037-.518-1.719-.518-.71 0-1.302.182-1.776.546-.468.36-.821.85-1.058 1.471-.232.615-.348 1.306-.348 2.073 0 .777.118 1.482.355 2.117.242.63.597 1.132 1.066 1.506.473.369 1.06.554 1.761.554Zm12.649 1.505c-1.051 0-1.958-.232-2.72-.696-.758-.469-1.342-1.122-1.754-1.96-.408-.843-.611-1.823-.611-2.94 0-1.118.203-2.103.611-2.955.412-.857.984-1.524 1.718-2.003.739-.483 1.601-.724 2.586-.724.568 0 1.129.095 1.683.284a4.17 4.17 0 0 1 1.513.923c.454.422.816.98 1.086 1.676.27.696.405 1.553.405 2.571v.711h-8.409v-1.449h6.705c0-.616-.124-1.165-.37-1.648a2.775 2.775 0 0 0-1.037-1.143c-.445-.28-.97-.419-1.576-.419-.668 0-1.246.165-1.733.497a3.264 3.264 0 0 0-1.115 1.278 3.75 3.75 0 0 0-.391 1.69v.966c0 .824.142 1.523.426 2.096a3.074 3.074 0 0 0 1.2 1.299c.512.294 1.106.441 1.783.441.44 0 .838-.062 1.193-.185.36-.128.67-.317.931-.568.26-.256.461-.573.603-.952l1.62.455a3.586 3.586 0 0 1-.86 1.448 4.18 4.18 0 0 1-1.491.966c-.592.228-1.257.341-1.996.341Zm-32.227-78.772V154h-1.704l-7.926-11.42h-.142V154h-1.762v-14.545h1.705l7.954 11.448h.142v-11.448h1.733Zm7.73 14.772c-.985 0-1.849-.234-2.593-.703-.738-.469-1.316-1.124-1.733-1.967-.412-.843-.618-1.828-.618-2.955 0-1.136.206-2.128.618-2.976.417-.847.995-1.505 1.733-1.974.744-.469 1.608-.703 2.593-.703.984 0 1.846.234 2.585.703.743.469 1.321 1.127 1.733 1.974.416.848.625 1.84.625 2.976 0 1.127-.209 2.112-.625 2.955-.412.843-.99 1.498-1.733 1.967-.739.469-1.601.703-2.585.703Zm0-1.505c.748 0 1.363-.192 1.846-.576a3.387 3.387 0 0 0 1.073-1.512 5.797 5.797 0 0 0 .348-2.032 5.85 5.85 0 0 0-.348-2.038 3.433 3.433 0 0 0-1.073-1.527c-.483-.388-1.098-.582-1.846-.582-.749 0-1.364.194-1.847.582a3.433 3.433 0 0 0-1.073 1.527 5.85 5.85 0 0 0-.348 2.038c0 .729.116 1.407.348 2.032.232.625.59 1.129 1.073 1.512.483.384 1.098.576 1.847.576Zm11.621 1.505c-.909 0-1.712-.229-2.408-.689-.696-.464-1.241-1.117-1.634-1.96-.393-.847-.589-1.849-.589-3.004 0-1.146.196-2.14.589-2.983.393-.843.94-1.494 1.641-1.953.701-.459 1.51-.689 2.429-.689.71 0 1.271.118 1.683.355.417.232.734.497.952.795.222.294.395.535.518.725h.142v-5.369h1.677V154h-1.62v-1.676h-.199c-.123.199-.298.45-.525.753-.227.298-.552.566-.973.802-.422.232-.983.348-1.683.348Zm.227-1.505c.672 0 1.24-.176 1.704-.526.464-.355.817-.845 1.059-1.47.241-.63.362-1.357.362-2.181 0-.814-.119-1.527-.355-2.137-.237-.616-.587-1.094-1.051-1.435-.464-.346-1.037-.518-1.719-.518-.71 0-1.302.182-1.776.546-.468.36-.821.85-1.058 1.471-.232.615-.348 1.306-.348 2.073 0 .777.118 1.482.355 2.117.242.63.597 1.132 1.066 1.506.473.369 1.06.554 1.761.554Zm12.649 1.505c-1.051 0-1.958-.232-2.72-.696-.758-.469-1.342-1.122-1.754-1.96-.408-.843-.611-1.823-.611-2.94 0-1.118.203-2.103.611-2.955.412-.857.984-1.524 1.718-2.003.739-.483 1.601-.724 2.586-.724.568 0 1.129.095 1.683.284a4.17 4.17 0 0 1 1.513.923c.454.422.816.98 1.086 1.676.27.696.405 1.553.405 2.571v.711h-8.409v-1.449h6.705c0-.616-.124-1.165-.37-1.648a2.775 2.775 0 0 0-1.037-1.143c-.445-.28-.97-.419-1.576-.419-.668 0-1.246.165-1.733.497a3.264 3.264 0 0 0-1.115 1.278 3.75 3.75 0 0 0-.391 1.69v.966c0 .824.142 1.523.426 2.096a3.074 3.074 0 0 0 1.2 1.299c.512.294 1.106.441 1.783.441.44 0 .838-.062 1.193-.185.36-.128.67-.317.931-.568.26-.256.461-.573.603-.952l1.62.455a3.586 3.586 0 0 1-.86 1.448 4.18 4.18 0 0 1-1.491.966c-.592.228-1.257.341-1.996.341Zm-32.227 109.228V278h-1.704l-7.926-11.42h-.142V278h-1.762v-14.545h1.705l7.954 11.448h.142v-11.448h1.733Zm7.73 14.772c-.985 0-1.849-.234-2.593-.703-.738-.469-1.316-1.124-1.733-1.967-.412-.843-.618-1.828-.618-2.955 0-1.136.206-2.128.618-2.976.417-.847.995-1.505 1.733-1.974.744-.469 1.608-.703 2.593-.703.984 0 1.846.234 2.585.703.743.469 1.321 1.127 1.733 1.974.416.848.625 1.84.625 2.976 0 1.127-.209 2.112-.625 2.955-.412.843-.99 1.498-1.733 1.967-.739.469-1.601.703-2.585.703Zm0-1.505c.748 0 1.363-.192 1.846-.576a3.387 3.387 0 0 0 1.073-1.512 5.797 5.797 0 0 0 .348-2.032 5.85 5.85 0 0 0-.348-2.038 3.433 3.433 0 0 0-1.073-1.527c-.483-.388-1.098-.582-1.846-.582-.749 0-1.364.194-1.847.582a3.433 3.433 0 0 0-1.073 1.527 5.85 5.85 0 0 0-.348 2.038c0 .729.116 1.407.348 2.032.232.625.59 1.129 1.073 1.512.483.384 1.098.576 1.847.576Zm11.621 1.505c-.909 0-1.712-.229-2.408-.689-.696-.464-1.241-1.117-1.634-1.96-.393-.847-.589-1.849-.589-3.004 0-1.146.196-2.14.589-2.983.393-.843.94-1.494 1.641-1.953.701-.459 1.51-.689 2.429-.689.71 0 1.271.118 1.683.355.417.232.734.497.952.795.222.294.395.535.518.725h.142v-5.369h1.677V278h-1.62v-1.676h-.199c-.123.199-.298.45-.525.753-.227.298-.552.566-.973.802-.422.232-.983.348-1.683.348Zm.227-1.505c.672 0 1.24-.176 1.704-.526.464-.355.817-.845 1.059-1.47.241-.63.362-1.357.362-2.181 0-.814-.119-1.527-.355-2.137-.237-.616-.587-1.094-1.051-1.435-.464-.346-1.037-.518-1.719-.518-.71 0-1.302.182-1.776.546-.468.36-.821.85-1.058 1.471-.232.615-.348 1.306-.348 2.073 0 .777.118 1.482.355 2.117.242.63.597 1.132 1.066 1.506.473.369 1.06.554 1.761.554Zm12.649 1.505c-1.051 0-1.958-.232-2.72-.696-.758-.469-1.342-1.122-1.754-1.96-.408-.843-.611-1.823-.611-2.94 0-1.118.203-2.103.611-2.955.412-.857.984-1.524 1.718-2.003.739-.483 1.601-.724 2.586-.724.568 0 1.129.095 1.683.284a4.17 4.17 0 0 1 1.513.923c.454.422.816.98 1.086 1.676.27.696.405 1.553.405 2.571v.711h-8.409v-1.449h6.705c0-.616-.124-1.165-.37-1.648a2.775 2.775 0 0 0-1.037-1.143c-.445-.28-.97-.419-1.576-.419-.668 0-1.246.165-1.733.497a3.264 3.264 0 0 0-1.115 1.278 3.75 3.75 0 0 0-.391 1.69v.966c0 .824.142 1.523.426 2.096a3.074 3.074 0 0 0 1.2 1.299c.512.294 1.106.441 1.783.441.44 0 .838-.062 1.193-.185.36-.128.67-.317.931-.568.26-.256.461-.573.603-.952l1.62.455a3.586 3.586 0 0 1-.86 1.448 4.18 4.18 0 0 1-1.491.966c-.592.228-1.257.341-1.996.341Zm-32.227 105.228V398h-1.704l-7.926-11.42h-.142V398h-1.762v-14.545h1.705l7.954 11.448h.142v-11.448h1.733Zm7.73 14.772c-.985 0-1.849-.234-2.593-.703-.738-.469-1.316-1.124-1.733-1.967-.412-.843-.618-1.828-.618-2.955 0-1.136.206-2.128.618-2.976.417-.847.995-1.505 1.733-1.974.744-.469 1.608-.703 2.593-.703.984 0 1.846.234 2.585.703.743.469 1.321 1.127 1.733 1.974.416.848.625 1.84.625 2.976 0 1.127-.209 2.112-.625 2.955-.412.843-.99 1.498-1.733 1.967-.739.469-1.601.703-2.585.703Zm0-1.505c.748 0 1.363-.192 1.846-.576a3.387 3.387 0 0 0 1.073-1.512 5.797 5.797 0 0 0 .348-2.032 5.85 5.85 0 0 0-.348-2.038 3.433 3.433 0 0 0-1.073-1.527c-.483-.388-1.098-.582-1.846-.582-.749 0-1.364.194-1.847.582a3.433 3.433 0 0 0-1.073 1.527 5.85 5.85 0 0 0-.348 2.038c0 .729.116 1.407.348 2.032.232.625.59 1.129 1.073 1.512.483.384 1.098.576 1.847.576Zm11.621 1.505c-.909 0-1.712-.229-2.408-.689-.696-.464-1.241-1.117-1.634-1.96-.393-.847-.589-1.849-.589-3.004 0-1.146.196-2.14.589-2.983.393-.843.94-1.494 1.641-1.953.701-.459 1.51-.689 2.429-.689.71 0 1.271.118 1.683.355.417.232.734.497.952.795.222.294.395.535.518.725h.142v-5.369h1.677V398h-1.62v-1.676h-.199c-.123.199-.298.45-.525.753-.227.298-.552.566-.973.802-.422.232-.983.348-1.683.348Zm.227-1.505c.672 0 1.24-.176 1.704-.526.464-.355.817-.845 1.059-1.47.241-.63.362-1.357.362-2.181 0-.814-.119-1.527-.355-2.137-.237-.616-.587-1.094-1.051-1.435-.464-.346-1.037-.518-1.719-.518-.71 0-1.302.182-1.776.546-.468.36-.821.85-1.058 1.471-.232.615-.348 1.306-.348 2.073 0 .777.118 1.482.355 2.117.242.63.597 1.132 1.066 1.506.473.369 1.06.554 1.761.554Zm12.649 1.505c-1.051 0-1.958-.232-2.72-.696-.758-.469-1.342-1.122-1.754-1.96-.408-.843-.611-1.823-.611-2.94 0-1.118.203-2.103.611-2.955.412-.857.984-1.524 1.718-2.003.739-.483 1.601-.724 2.586-.724.568 0 1.129.095 1.683.284a4.17 4.17 0 0 1 1.513.923c.454.422.816.98 1.086 1.676.27.696.405 1.553.405 2.571v.711h-8.409v-1.449h6.705c0-.616-.124-1.165-.37-1.648a2.775 2.775 0 0 0-1.037-1.143c-.445-.28-.97-.419-1.576-.419-.668 0-1.246.165-1.733.497a3.264 3.264 0 0 0-1.115 1.278 3.75 3.75 0 0 0-.391 1.69v.966c0 .824.142 1.523.426 2.096a3.074 3.074 0 0 0 1.2 1.299c.512.294 1.106.441 1.783.441.44 0 .838-.062 1.193-.185.36-.128.67-.317.931-.568.26-.256.461-.573.603-.952l1.62.455a3.586 3.586 0 0 1-.86 1.448 4.18 4.18 0 0 1-1.491.966c-.592.228-1.257.341-1.996.341Zm-32.227-78.772V334h-1.704l-7.926-11.42h-.142V334h-1.762v-14.545h1.705l7.954 11.448h.142v-11.448h1.733Zm7.73 14.772c-.985 0-1.849-.234-2.593-.703-.738-.469-1.316-1.124-1.733-1.967-.412-.843-.618-1.828-.618-2.955 0-1.136.206-2.128.618-2.976.417-.847.995-1.505 1.733-1.974.744-.469 1.608-.703 2.593-.703.984 0 1.846.234 2.585.703.743.469 1.321 1.127 1.733 1.974.416.848.625 1.84.625 2.976 0 1.127-.209 2.112-.625 2.955-.412.843-.99 1.498-1.733 1.967-.739.469-1.601.703-2.585.703Zm0-1.505c.748 0 1.363-.192 1.846-.576a3.387 3.387 0 0 0 1.073-1.512 5.797 5.797 0 0 0 .348-2.032 5.85 5.85 0 0 0-.348-2.038 3.433 3.433 0 0 0-1.073-1.527c-.483-.388-1.098-.582-1.846-.582-.749 0-1.364.194-1.847.582a3.433 3.433 0 0 0-1.073 1.527 5.85 5.85 0 0 0-.348 2.038c0 .729.116 1.407.348 2.032.232.625.59 1.129 1.073 1.512.483.384 1.098.576 1.847.576Zm11.621 1.505c-.909 0-1.712-.229-2.408-.689-.696-.464-1.241-1.117-1.634-1.96-.393-.847-.589-1.849-.589-3.004 0-1.146.196-2.14.589-2.983.393-.843.94-1.494 1.641-1.953.701-.459 1.51-.689 2.429-.689.71 0 1.271.118 1.683.355.417.232.734.497.952.795.222.294.395.535.518.725h.142v-5.369h1.677V334h-1.62v-1.676h-.199c-.123.199-.298.45-.525.753-.227.298-.552.566-.973.802-.422.232-.983.348-1.683.348Zm.227-1.505c.672 0 1.24-.176 1.704-.526.464-.355.817-.845 1.059-1.47.241-.63.362-1.357.362-2.181 0-.814-.119-1.527-.355-2.137-.237-.616-.587-1.094-1.051-1.435-.464-.346-1.037-.518-1.719-.518-.71 0-1.302.182-1.776.546-.468.36-.821.85-1.058 1.471-.232.615-.348 1.306-.348 2.073 0 .777.118 1.482.355 2.117.242.63.597 1.132 1.066 1.506.473.369 1.06.554 1.761.554Zm12.649 1.505c-1.051 0-1.958-.232-2.72-.696-.758-.469-1.342-1.122-1.754-1.96-.408-.843-.611-1.823-.611-2.94 0-1.118.203-2.103.611-2.955.412-.857.984-1.524 1.718-2.003.739-.483 1.601-.724 2.586-.724.568 0 1.129.095 1.683.284a4.17 4.17 0 0 1 1.513.923c.454.422.816.98 1.086 1.676.27.696.405 1.553.405 2.571v.711h-8.409v-1.449h6.705c0-.616-.124-1.165-.37-1.648a2.775 2.775 0 0 0-1.037-1.143c-.445-.28-.97-.419-1.576-.419-.668 0-1.246.165-1.733.497a3.264 3.264 0 0 0-1.115 1.278 3.75 3.75 0 0 0-.391 1.69v.966c0 .824.142 1.523.426 2.096a3.074 3.074 0 0 0 1.2 1.299c.512.294 1.106.441 1.783.441.44 0 .838-.062 1.193-.185.36-.128.67-.317.931-.568.26-.256.461-.573.603-.952l1.62.455a3.586 3.586 0 0 1-.86 1.448 4.18 4.18 0 0 1-1.491.966c-.592.228-1.257.341-1.996.341Zm-32.227 173.228V522h-1.704l-7.926-11.42h-.142V522h-1.762v-14.545h1.705l7.954 11.448h.142v-11.448h1.733Zm7.73 14.772c-.985 0-1.849-.234-2.593-.703-.738-.469-1.316-1.124-1.733-1.967-.412-.843-.618-1.828-.618-2.955 0-1.136.206-2.128.618-2.976.417-.847.995-1.505 1.733-1.974.744-.469 1.608-.703 2.593-.703.984 0 1.846.234 2.585.703.743.469 1.321 1.127 1.733 1.974.416.848.625 1.84.625 2.976 0 1.127-.209 2.112-.625 2.955-.412.843-.99 1.498-1.733 1.967-.739.469-1.601.703-2.585.703Zm0-1.505c.748 0 1.363-.192 1.846-.576a3.387 3.387 0 0 0 1.073-1.512 5.797 5.797 0 0 0 .348-2.032 5.85 5.85 0 0 0-.348-2.038 3.433 3.433 0 0 0-1.073-1.527c-.483-.388-1.098-.582-1.846-.582-.749 0-1.364.194-1.847.582a3.433 3.433 0 0 0-1.073 1.527 5.85 5.85 0 0 0-.348 2.038c0 .729.116 1.407.348 2.032.232.625.59 1.129 1.073 1.512.483.384 1.098.576 1.847.576Zm11.621 1.505c-.909 0-1.712-.229-2.408-.689-.696-.464-1.241-1.117-1.634-1.96-.393-.847-.589-1.849-.589-3.004 0-1.146.196-2.14.589-2.983.393-.843.94-1.494 1.641-1.953.701-.459 1.51-.689 2.429-.689.71 0 1.271.118 1.683.355.417.232.734.497.952.795.222.294.395.535.518.725h.142v-5.369h1.677V522h-1.62v-1.676h-.199c-.123.199-.298.45-.525.753-.227.298-.552.566-.973.802-.422.232-.983.348-1.683.348Zm.227-1.505c.672 0 1.24-.176 1.704-.526.464-.355.817-.845 1.059-1.47.241-.63.362-1.357.362-2.181 0-.814-.119-1.527-.355-2.137-.237-.616-.587-1.094-1.051-1.435-.464-.346-1.037-.518-1.719-.518-.71 0-1.302.182-1.776.546-.468.36-.821.85-1.058 1.471-.232.615-.348 1.306-.348 2.073 0 .777.118 1.482.355 2.117.242.63.597 1.132 1.066 1.506.473.369 1.06.554 1.761.554Zm12.649 1.505c-1.051 0-1.958-.232-2.72-.696-.758-.469-1.342-1.122-1.754-1.96-.408-.843-.611-1.823-.611-2.94 0-1.118.203-2.103.611-2.955.412-.857.984-1.524 1.718-2.003.739-.483 1.601-.724 2.586-.724.568 0 1.129.095 1.683.284a4.17 4.17 0 0 1 1.513.923c.454.422.816.98 1.086 1.676.27.696.405 1.553.405 2.571v.711h-8.409v-1.449h6.705c0-.616-.124-1.165-.37-1.648a2.775 2.775 0 0 0-1.037-1.143c-.445-.28-.97-.419-1.576-.419-.668 0-1.246.165-1.733.497a3.264 3.264 0 0 0-1.115 1.278 3.75 3.75 0 0 0-.391 1.69v.966c0 .824.142 1.523.426 2.096a3.074 3.074 0 0 0 1.2 1.299c.512.294 1.106.441 1.783.441.44 0 .838-.062 1.193-.185.36-.128.67-.317.931-.568.26-.256.461-.573.603-.952l1.62.455a3.586 3.586 0 0 1-.86 1.448 4.18 4.18 0 0 1-1.491.966c-.592.228-1.257.341-1.996.341Zm-32.227-78.772V458h-1.704l-7.926-11.42h-.142V458h-1.762v-14.545h1.705l7.954 11.448h.142v-11.448h1.733Zm7.73 14.772c-.985 0-1.849-.234-2.593-.703-.738-.469-1.316-1.124-1.733-1.967-.412-.843-.618-1.828-.618-2.955 0-1.136.206-2.128.618-2.976.417-.847.995-1.505 1.733-1.974.744-.469 1.608-.703 2.593-.703.984 0 1.846.234 2.585.703.743.469 1.321 1.127 1.733 1.974.416.848.625 1.84.625 2.976 0 1.127-.209 2.112-.625 2.955-.412.843-.99 1.498-1.733 1.967-.739.469-1.601.703-2.585.703Zm0-1.505c.748 0 1.363-.192 1.846-.576a3.387 3.387 0 0 0 1.073-1.512 5.797 5.797 0 0 0 .348-2.032 5.85 5.85 0 0 0-.348-2.038 3.433 3.433 0 0 0-1.073-1.527c-.483-.388-1.098-.582-1.846-.582-.749 0-1.364.194-1.847.582a3.433 3.433 0 0 0-1.073 1.527 5.85 5.85 0 0 0-.348 2.038c0 .729.116 1.407.348 2.032.232.625.59 1.129 1.073 1.512.483.384 1.098.576 1.847.576Zm11.621 1.505c-.909 0-1.712-.229-2.408-.689-.696-.464-1.241-1.117-1.634-1.96-.393-.847-.589-1.849-.589-3.004 0-1.146.196-2.14.589-2.983.393-.843.94-1.494 1.641-1.953.701-.459 1.51-.689 2.429-.689.71 0 1.271.118 1.683.355.417.232.734.497.952.795.222.294.395.535.518.725h.142v-5.369h1.677V458h-1.62v-1.676h-.199c-.123.199-.298.45-.525.753-.227.298-.552.566-.973.802-.422.232-.983.348-1.683.348Zm.227-1.505c.672 0 1.24-.176 1.704-.526.464-.355.817-.845 1.059-1.47.241-.63.362-1.357.362-2.181 0-.814-.119-1.527-.355-2.137-.237-.616-.587-1.094-1.051-1.435-.464-.346-1.037-.518-1.719-.518-.71 0-1.302.182-1.776.546-.468.36-.821.85-1.058 1.471-.232.615-.348 1.306-.348 2.073 0 .777.118 1.482.355 2.117.242.63.597 1.132 1.066 1.506.473.369 1.06.554 1.761.554Zm12.649 1.505c-1.051 0-1.958-.232-2.72-.696-.758-.469-1.342-1.122-1.754-1.96-.408-.843-.611-1.823-.611-2.94 0-1.118.203-2.103.611-2.955.412-.857.984-1.524 1.718-2.003.739-.483 1.601-.724 2.586-.724.568 0 1.129.095 1.683.284a4.17 4.17 0 0 1 1.513.923c.454.422.816.98 1.086 1.676.27.696.405 1.553.405 2.571v.711h-8.409v-1.449h6.705c0-.616-.124-1.165-.37-1.648a2.775 2.775 0 0 0-1.037-1.143c-.445-.28-.97-.419-1.576-.419-.668 0-1.246.165-1.733.497a3.264 3.264 0 0 0-1.115 1.278 3.75 3.75 0 0 0-.391 1.69v.966c0 .824.142 1.523.426 2.096a3.074 3.074 0 0 0 1.2 1.299c.512.294 1.106.441 1.783.441.44 0 .838-.062 1.193-.185.36-.128.67-.317.931-.568.26-.256.461-.573.603-.952l1.62.455a3.586 3.586 0 0 1-.86 1.448 4.18 4.18 0 0 1-1.491.966c-.592.228-1.257.341-1.996.341Z"/>
  <path stroke="#fff" stroke-width="2" d="m270.684 290.271 209 196M271.603 251.972l208.86-132.816"/>
  <path fill="#000" stroke="#fff" stroke-width="2" d="M480 119h398v367H480z"/>
  <path stroke="#fff" d="M514 180.382h330a9.5 9.5 0 0 1 9.5 9.5v250.447a9.5 9.5 0 0 1-9.5 9.5H514a9.5 9.5 0 0 1-9.5-9.5V189.882a9.5 9.5 0 0 1 9.5-9.5Z"/>
  <path stroke="#fff" d="M529.5 202.155h299v44.839h-299zm0 45.839h299v44.839h-299zm0 45.838h299v44.839h-299zm0 45.839h299v44.839h-299zm0 45.838h299v44.839h-299z"/>
  <path fill="#fff" d="M587.25 161h-4.489v-14.545h4.688c1.411 0 2.618.291 3.622.873 1.004.578 1.773 1.409 2.308 2.493.535 1.08.803 2.372.803 3.878 0 1.515-.27 2.819-.81 3.913a5.77 5.77 0 0 1-2.358 2.514c-1.032.583-2.287.874-3.764.874Zm-2.727-1.562h2.613c1.203 0 2.2-.233 2.99-.697a4.286 4.286 0 0 0 1.769-1.981c.388-.857.582-1.877.582-3.061 0-1.174-.191-2.185-.575-3.033-.384-.852-.956-1.505-1.719-1.96-.762-.459-1.711-.689-2.848-.689h-2.812v11.421ZM596.909 161v-10.909h1.676V161h-1.676Zm.852-12.727c-.326 0-.608-.112-.845-.334a1.073 1.073 0 0 1-.348-.803c0-.312.116-.58.348-.802.237-.223.519-.334.845-.334.327 0 .606.111.838.334.237.222.356.49.356.802 0 .313-.119.58-.356.803a1.169 1.169 0 0 1-.838.334Zm11.621 4.261-1.505.426a2.808 2.808 0 0 0-.419-.731 2.025 2.025 0 0 0-.739-.597c-.312-.156-.712-.234-1.2-.234-.668 0-1.224.154-1.669.461-.441.303-.661.689-.661 1.158 0 .417.152.746.455.987.303.242.776.443 1.42.604l1.62.398c.975.236 1.702.599 2.18 1.086.478.483.717 1.106.717 1.868 0 .625-.18 1.184-.539 1.676-.356.493-.853.881-1.492 1.165-.639.284-1.383.426-2.23.426-1.113 0-2.034-.241-2.763-.724-.729-.483-1.191-1.189-1.385-2.117l1.591-.397c.152.587.438 1.027.86 1.321.426.293.982.44 1.669.44.781 0 1.401-.166 1.86-.497.464-.336.696-.739.696-1.208 0-.378-.132-.696-.397-.951-.266-.261-.673-.455-1.222-.583l-1.818-.426c-.999-.237-1.733-.603-2.202-1.101-.464-.502-.696-1.129-.696-1.882 0-.615.173-1.16.519-1.633.35-.474.826-.845 1.427-1.115.606-.27 1.293-.405 2.06-.405 1.079 0 1.927.237 2.542.71a3.826 3.826 0 0 1 1.321 1.875Zm7.467-2.443v1.42h-5.654v-1.42h5.654Zm-4.006-2.614h1.676v10.398c0 .473.069.829.206 1.065.142.232.322.389.54.469.222.076.457.114.703.114.185 0 .336-.01.455-.029l.284-.056.341 1.505a3.449 3.449 0 0 1-.476.128 3.529 3.529 0 0 1-.774.071c-.474 0-.938-.102-1.392-.305a2.773 2.773 0 0 1-1.123-.931c-.293-.416-.44-.942-.44-1.576v-10.853ZM619.37 161v-10.909h1.619v1.648h.114c.199-.54.559-.978 1.08-1.314a3.175 3.175 0 0 1 1.761-.505c.123 0 .277.003.462.008.184.004.324.011.419.021v1.704a5.397 5.397 0 0 0-.391-.064 3.867 3.867 0 0 0-.632-.049c-.53 0-1.004.111-1.421.334a2.51 2.51 0 0 0-.98.909 2.454 2.454 0 0 0-.355 1.314V161h-1.676Zm7.441 0v-10.909h1.677V161h-1.677Zm.853-12.727c-.327 0-.609-.112-.845-.334a1.073 1.073 0 0 1-.348-.803c0-.312.116-.58.348-.802.236-.223.518-.334.845-.334.326 0 .606.111.838.334.237.222.355.49.355.802 0 .313-.118.58-.355.803a1.17 1.17 0 0 1-.838.334ZM631.785 161v-14.545h1.676v5.369h.142c.123-.19.294-.431.511-.725.223-.298.54-.563.952-.795.417-.237.98-.355 1.69-.355.919 0 1.729.23 2.429.689.701.459 1.248 1.11 1.641 1.953s.589 1.837.589 2.983c0 1.155-.196 2.157-.589 3.004-.393.843-.938 1.496-1.634 1.96-.696.46-1.498.689-2.407.689-.701 0-1.262-.116-1.683-.348-.422-.236-.746-.504-.973-.802a10.46 10.46 0 0 1-.526-.753h-.199V161h-1.619Zm1.648-5.455c0 .824.12 1.551.362 2.181.241.625.594 1.115 1.058 1.47.464.35 1.032.526 1.705.526.7 0 1.285-.185 1.754-.554.473-.374.828-.876 1.065-1.506.242-.635.362-1.34.362-2.117 0-.767-.118-1.458-.355-2.073-.232-.621-.585-1.111-1.058-1.471-.469-.364-1.058-.546-1.768-.546-.682 0-1.255.172-1.719.518-.464.341-.815.819-1.051 1.435-.237.61-.355 1.323-.355 2.137Zm17.421.995v-6.449h1.677V161h-1.677v-1.847h-.113a3.587 3.587 0 0 1-1.193 1.414c-.54.383-1.222.575-2.046.575-.682 0-1.288-.149-1.818-.447-.53-.303-.947-.758-1.25-1.364-.303-.611-.455-1.38-.455-2.308v-6.932h1.677v6.818c0 .796.222 1.43.667 1.903.45.474 1.023.711 1.719.711.417 0 .84-.107 1.271-.32.436-.213.8-.54 1.094-.98.298-.44.447-1.001.447-1.683Zm9.491-6.449v1.42h-5.654v-1.42h5.654Zm-4.006-2.614h1.676v10.398c0 .473.069.829.206 1.065.142.232.322.389.54.469.223.076.457.114.703.114.185 0 .336-.01.455-.029l.284-.056.341 1.505a3.449 3.449 0 0 1-.476.128 3.529 3.529 0 0 1-.774.071c-.474 0-.938-.102-1.392-.305a2.773 2.773 0 0 1-1.123-.931c-.293-.416-.44-.942-.44-1.576v-10.853Zm10.984 13.75c-1.051 0-1.958-.232-2.72-.696a4.672 4.672 0 0 1-1.755-1.96c-.407-.843-.61-1.823-.61-2.94 0-1.118.203-2.103.61-2.955.412-.857.985-1.524 1.719-2.003.739-.483 1.6-.724 2.585-.724.569 0 1.13.095 1.684.284a4.159 4.159 0 0 1 1.512.923c.455.422.817.98 1.087 1.676s.405 1.553.405 2.571v.711h-8.409v-1.449h6.704c0-.616-.123-1.165-.369-1.648a2.775 2.775 0 0 0-1.037-1.143c-.445-.28-.971-.419-1.577-.419-.667 0-1.245.165-1.733.497a3.272 3.272 0 0 0-1.115 1.278 3.762 3.762 0 0 0-.39 1.69v.966c0 .824.142 1.523.426 2.096a3.074 3.074 0 0 0 1.2 1.299c.511.294 1.106.441 1.783.441.44 0 .838-.062 1.193-.185.36-.128.67-.317.93-.568.261-.256.462-.573.604-.952l1.619.455a3.584 3.584 0 0 1-.859 1.448 4.19 4.19 0 0 1-1.491.966c-.592.228-1.258.341-1.996.341Zm11.186 0c-.909 0-1.712-.229-2.408-.689-.696-.464-1.24-1.117-1.633-1.96-.393-.847-.59-1.849-.59-3.004 0-1.146.197-2.14.59-2.983.393-.843.94-1.494 1.64-1.953.701-.459 1.511-.689 2.429-.689.711 0 1.272.118 1.684.355.416.232.733.497.951.795.223.294.396.535.519.725h.142v-5.369h1.676V161h-1.619v-1.676h-.199c-.123.199-.299.45-.526.753-.227.298-.551.566-.973.802-.421.232-.982.348-1.683.348Zm.227-1.505c.672 0 1.241-.176 1.705-.526.464-.355.816-.845 1.058-1.47.241-.63.362-1.357.362-2.181 0-.814-.118-1.527-.355-2.137-.237-.616-.587-1.094-1.051-1.435-.464-.346-1.037-.518-1.719-.518-.71 0-1.302.182-1.775.546-.469.36-.822.85-1.059 1.471-.232.615-.348 1.306-.348 2.073 0 .777.119 1.482.355 2.117.242.63.597 1.132 1.066 1.506.473.369 1.06.554 1.761.554Zm13.928-13.267h2.102l4.943 12.073h.171l4.943-12.073h2.102V161h-1.648v-11.051h-.142L700.59 161h-1.591l-4.546-11.051h-.142V161h-1.647v-14.545Zm21.997 14.772c-.985 0-1.849-.234-2.592-.703-.739-.469-1.316-1.124-1.733-1.967-.412-.843-.618-1.828-.618-2.955 0-1.136.206-2.128.618-2.976.417-.847.994-1.505 1.733-1.974.743-.469 1.607-.703 2.592-.703.985 0 1.847.234 2.585.703.744.469 1.321 1.127 1.733 1.974.417.848.625 1.84.625 2.976 0 1.127-.208 2.112-.625 2.955-.412.843-.989 1.498-1.733 1.967-.738.469-1.6.703-2.585.703Zm0-1.505c.748 0 1.364-.192 1.847-.576.483-.383.84-.887 1.072-1.512a5.797 5.797 0 0 0 .348-2.032 5.85 5.85 0 0 0-.348-2.038c-.232-.63-.589-1.139-1.072-1.527-.483-.388-1.099-.582-1.847-.582s-1.363.194-1.846.582a3.433 3.433 0 0 0-1.073 1.527 5.85 5.85 0 0 0-.348 2.038c0 .729.116 1.407.348 2.032.232.625.59 1.129 1.073 1.512.483.384 1.098.576 1.846.576Zm9.178-5.284V161h-1.676v-10.909h1.619v1.704h.142a3.115 3.115 0 0 1 1.165-1.335c.521-.341 1.193-.511 2.017-.511.739 0 1.385.151 1.939.454.554.299.985.753 1.293 1.364.307.606.461 1.373.461 2.301V161h-1.676v-6.818c0-.857-.222-1.525-.667-2.003-.445-.483-1.056-.724-1.833-.724-.535 0-1.013.116-1.434.348-.417.232-.746.57-.988 1.015-.241.445-.362.985-.362 1.62Zm14.455 6.789c-.985 0-1.849-.234-2.592-.703-.739-.469-1.317-1.124-1.733-1.967-.412-.843-.618-1.828-.618-2.955 0-1.136.206-2.128.618-2.976.416-.847.994-1.505 1.733-1.974.743-.469 1.607-.703 2.592-.703.985 0 1.847.234 2.585.703.744.469 1.321 1.127 1.733 1.974.417.848.625 1.84.625 2.976 0 1.127-.208 2.112-.625 2.955-.412.843-.989 1.498-1.733 1.967-.738.469-1.6.703-2.585.703Zm0-1.505c.748 0 1.364-.192 1.847-.576.483-.383.84-.887 1.072-1.512a5.797 5.797 0 0 0 .348-2.032 5.85 5.85 0 0 0-.348-2.038c-.232-.63-.589-1.139-1.072-1.527-.483-.388-1.099-.582-1.847-.582s-1.364.194-1.847.582c-.483.388-.84.897-1.072 1.527a5.85 5.85 0 0 0-.348 2.038c0 .729.116 1.407.348 2.032.232.625.589 1.129 1.072 1.512.483.384 1.099.576 1.847.576Zm9.178-13.267V161h-1.676v-14.545h1.676Zm3.07 14.545v-10.909h1.676V161h-1.676Zm.852-12.727c-.327 0-.608-.112-.845-.334a1.073 1.073 0 0 1-.348-.803c0-.312.116-.58.348-.802a1.19 1.19 0 0 1 .845-.334c.327 0 .606.111.838.334.237.222.355.49.355.802 0 .313-.118.58-.355.803a1.169 1.169 0 0 1-.838.334Zm8.638 1.818v1.42h-5.653v-1.42h5.653Zm-4.005-2.614h1.676v10.398c0 .473.068.829.206 1.065.142.232.322.389.54.469.222.076.456.114.703.114.184 0 .336-.01.454-.029l.284-.056.341 1.505a3.37 3.37 0 0 1-.476.128 3.516 3.516 0 0 1-.774.071c-.473 0-.937-.102-1.392-.305a2.764 2.764 0 0 1-1.122-.931c-.294-.416-.44-.942-.44-1.576v-10.853Zm8.437 6.961V161h-1.676v-14.545h1.676v5.34h.142a3.087 3.087 0 0 1 1.151-1.342c.516-.336 1.202-.504 2.059-.504.744 0 1.395.149 1.954.447.558.294.991.746 1.299 1.357.313.606.469 1.378.469 2.315V161h-1.676v-6.818c0-.867-.225-1.537-.675-2.01-.445-.478-1.063-.717-1.854-.717-.549 0-1.041.116-1.477.348-.431.232-.772.57-1.023 1.015-.246.445-.369.985-.369 1.62ZM600.923 230l-3.977-14.545h1.789l3.04 11.846h.142l3.097-11.846h1.988l3.097 11.846h.142l3.04-11.846h1.79L611.093 230h-1.818l-3.21-11.591h-.114L602.741 230h-1.818Zm18.31.256a4.443 4.443 0 0 1-1.883-.391 3.234 3.234 0 0 1-1.342-1.143c-.331-.502-.497-1.108-.497-1.819 0-.625.123-1.131.369-1.519a2.62 2.62 0 0 1 .988-.924 5.196 5.196 0 0 1 1.363-.497 16.367 16.367 0 0 1 1.513-.27c.663-.085 1.2-.149 1.612-.192.417-.047.72-.125.909-.234.194-.109.291-.298.291-.568v-.057c0-.701-.191-1.245-.575-1.633-.379-.389-.954-.583-1.726-.583-.8 0-1.427.175-1.882.526-.454.35-.774.724-.959 1.122l-1.59-.568c.284-.663.662-1.179 1.136-1.549a4.262 4.262 0 0 1 1.562-.781 6.516 6.516 0 0 1 1.677-.227c.35 0 .752.042 1.207.128.459.08.902.248 1.328.504.431.256.788.642 1.072 1.158.285.516.427 1.207.427 2.073V230h-1.677v-1.477h-.085c-.113.236-.303.49-.568.76-.265.27-.618.499-1.058.689-.441.189-.978.284-1.612.284Zm.255-1.506c.663 0 1.222-.13 1.676-.391.46-.26.805-.596 1.037-1.008.237-.412.355-.845.355-1.3v-1.534c-.071.085-.227.163-.468.234a7.743 7.743 0 0 1-.824.178c-.308.047-.609.09-.902.128-.289.033-.523.061-.703.085a6.406 6.406 0 0 0-1.222.277c-.374.123-.677.31-.909.561-.227.246-.341.582-.341 1.009 0 .582.216 1.022.646 1.321.436.293.988.44 1.655.44Zm15.531-7.216-1.506.426a2.753 2.753 0 0 0-.419-.731 2.02 2.02 0 0 0-.738-.597c-.313-.156-.713-.234-1.2-.234-.668 0-1.224.154-1.669.461-.441.303-.661.689-.661 1.158 0 .417.152.746.455.987.303.242.776.443 1.42.604l1.619.398c.976.236 1.702.599 2.181 1.086.478.483.717 1.106.717 1.868 0 .625-.18 1.184-.54 1.676-.355.493-.852.881-1.491 1.165-.639.284-1.383.426-2.23.426-1.113 0-2.034-.241-2.763-.724-.729-.483-1.191-1.189-1.385-2.117l1.591-.397c.151.587.438 1.027.859 1.321.426.293.983.44 1.669.44.782 0 1.402-.166 1.861-.497.464-.336.696-.739.696-1.208 0-.378-.132-.696-.398-.951-.265-.261-.672-.455-1.221-.583l-1.818-.426c-.999-.237-1.733-.603-2.202-1.101-.464-.502-.696-1.129-.696-1.882a2.7 2.7 0 0 1 .518-1.633c.351-.474.827-.845 1.428-1.115.606-.27 1.292-.405 2.06-.405 1.079 0 1.927.237 2.542.71a3.832 3.832 0 0 1 1.321 1.875Zm2.722 8.466v-10.909h1.619v1.704h.142a2.75 2.75 0 0 1 1.101-1.356c.507-.327 1.115-.49 1.826-.49.719 0 1.318.163 1.796.49.483.322.86.774 1.13 1.356h.113c.28-.563.699-1.01 1.257-1.342.559-.336 1.229-.504 2.01-.504.976 0 1.774.305 2.394.916.62.606.93 1.551.93 2.834V230h-1.676v-7.301c0-.805-.22-1.38-.66-1.726-.441-.346-.959-.518-1.556-.518-.767 0-1.361.232-1.782.696-.422.459-.633 1.041-.633 1.747V230h-1.704v-7.472c0-.62-.201-1.119-.604-1.498-.402-.384-.921-.575-1.555-.575-.436 0-.843.116-1.222.348a2.633 2.633 0 0 0-.909.965c-.227.408-.341.879-.341 1.414V230h-1.676Zm21.957.227c-1.051 0-1.958-.232-2.72-.696a4.672 4.672 0 0 1-1.755-1.96c-.407-.843-.61-1.823-.61-2.94 0-1.118.203-2.103.61-2.955.412-.857.985-1.524 1.719-2.003.739-.483 1.6-.724 2.585-.724.569 0 1.13.095 1.684.284a4.159 4.159 0 0 1 1.512.923c.455.422.817.98 1.087 1.676s.405 1.553.405 2.571v.711h-8.409v-1.449h6.704c0-.616-.123-1.165-.369-1.648a2.775 2.775 0 0 0-1.037-1.143c-.445-.28-.971-.419-1.577-.419-.667 0-1.245.165-1.733.497a3.272 3.272 0 0 0-1.115 1.278 3.762 3.762 0 0 0-.39 1.69v.966c0 .824.142 1.523.426 2.096a3.074 3.074 0 0 0 1.2 1.299c.511.294 1.106.441 1.783.441.44 0 .838-.062 1.193-.185.36-.128.67-.317.93-.568.261-.256.462-.573.604-.952l1.619.455a3.584 3.584 0 0 1-.859 1.448 4.19 4.19 0 0 1-1.491.966c-.592.228-1.258.341-1.996.341Zm7.067-.227v-10.909h1.619v1.648h.114c.198-.54.558-.978 1.079-1.314a3.18 3.18 0 0 1 1.761-.505c.124 0 .277.003.462.008.185.004.324.011.419.021v1.704a5.397 5.397 0 0 0-.391-.064 3.849 3.849 0 0 0-.632-.049c-.53 0-1.003.111-1.42.334-.412.217-.739.52-.98.909a2.445 2.445 0 0 0-.355 1.314V230h-1.676Zm23.236-10a5.156 5.156 0 0 0-.617-1.286 3.987 3.987 0 0 0-.902-.98 3.812 3.812 0 0 0-1.179-.618 4.706 4.706 0 0 0-1.449-.213c-.862 0-1.646.223-2.351.668-.706.445-1.267 1.101-1.683 1.967-.417.867-.625 1.93-.625 3.189 0 1.26.21 2.323.632 3.189.421.867.992 1.522 1.711 1.968.72.445 1.53.667 2.429.667.834 0 1.568-.177 2.202-.533a3.781 3.781 0 0 0 1.492-1.519c.359-.659.539-1.433.539-2.323l.54.114h-4.375v-1.563h5.54v1.563c0 1.198-.256 2.239-.767 3.125a5.303 5.303 0 0 1-2.102 2.059c-.891.483-1.913.725-3.069.725-1.288 0-2.419-.303-3.395-.909-.97-.606-1.728-1.468-2.272-2.585-.54-1.118-.81-2.444-.81-3.978 0-1.15.154-2.185.462-3.103.312-.924.753-1.71 1.321-2.358a5.772 5.772 0 0 1 2.017-1.492c.776-.345 1.631-.518 2.564-.518a6.45 6.45 0 0 1 2.145.348 5.743 5.743 0 0 1 1.782.973 5.52 5.52 0 0 1 1.314 1.498c.351.578.592 1.22.725 1.925h-1.819Zm7.903 10.256a4.442 4.442 0 0 1-1.882-.391 3.228 3.228 0 0 1-1.342-1.143c-.331-.502-.497-1.108-.497-1.819 0-.625.123-1.131.369-1.519a2.61 2.61 0 0 1 .987-.924 5.216 5.216 0 0 1 1.364-.497 16.367 16.367 0 0 1 1.513-.27c.663-.085 1.2-.149 1.612-.192.417-.047.72-.125.909-.234.194-.109.291-.298.291-.568v-.057c0-.701-.191-1.245-.575-1.633-.379-.389-.954-.583-1.726-.583-.8 0-1.427.175-1.882.526-.454.35-.774.724-.959 1.122l-1.591-.568c.284-.663.663-1.179 1.137-1.549a4.262 4.262 0 0 1 1.562-.781 6.508 6.508 0 0 1 1.676-.227c.351 0 .753.042 1.208.128.459.08.902.248 1.328.504.431.256.788.642 1.072 1.158.284.516.426 1.207.426 2.073V230h-1.676v-1.477h-.085c-.114.236-.303.49-.568.76-.265.27-.618.499-1.058.689-.441.189-.978.284-1.613.284Zm.256-1.506c.663 0 1.222-.13 1.676-.391.46-.26.805-.596 1.037-1.008.237-.412.355-.845.355-1.3v-1.534c-.071.085-.227.163-.468.234a7.743 7.743 0 0 1-.824.178c-.308.047-.609.09-.902.128-.289.033-.523.061-.703.085a6.406 6.406 0 0 0-1.222.277c-.374.123-.677.31-.909.561-.227.246-.341.582-.341 1.009 0 .582.215 1.022.646 1.321.436.293.988.44 1.655.44Zm12.548-9.659v1.42h-5.653v-1.42h5.653Zm-4.006-2.614h1.677v10.398c0 .473.068.829.206 1.065.142.232.321.389.539.469.223.076.457.114.703.114.185 0 .337-.01.455-.029l.284-.056.341 1.505a3.41 3.41 0 0 1-.476.128 3.523 3.523 0 0 1-.774.071c-.474 0-.938-.102-1.392-.305a2.764 2.764 0 0 1-1.122-.931c-.294-.416-.441-.942-.441-1.576v-10.853Zm10.984 13.75c-1.051 0-1.958-.232-2.72-.696-.758-.469-1.342-1.122-1.754-1.96-.408-.843-.611-1.823-.611-2.94 0-1.118.203-2.103.611-2.955.412-.857.984-1.524 1.718-2.003.739-.483 1.601-.724 2.586-.724.568 0 1.129.095 1.683.284a4.17 4.17 0 0 1 1.513.923c.454.422.816.98 1.086 1.676.27.696.405 1.553.405 2.571v.711h-8.409v-1.449h6.705c0-.616-.124-1.165-.37-1.648a2.775 2.775 0 0 0-1.037-1.143c-.445-.28-.97-.419-1.576-.419-.668 0-1.246.165-1.733.497a3.264 3.264 0 0 0-1.115 1.278 3.75 3.75 0 0 0-.391 1.69v.966c0 .824.142 1.523.426 2.096a3.074 3.074 0 0 0 1.2 1.299c.512.294 1.106.441 1.783.441.44 0 .838-.062 1.193-.185.36-.128.67-.317.931-.568.26-.256.461-.573.603-.952l1.62.455a3.586 3.586 0 0 1-.86 1.448 4.18 4.18 0 0 1-1.491.966c-.592.228-1.257.341-1.996.341Zm9.538-.227-3.323-10.909h1.761l2.358 8.352h.114l2.329-8.352h1.79l2.301 8.324h.114l2.358-8.324h1.761L735.463 230h-1.648l-2.386-8.381h-.17L728.872 230h-1.648Zm16.989.256a4.438 4.438 0 0 1-1.882-.391 3.228 3.228 0 0 1-1.342-1.143c-.332-.502-.498-1.108-.498-1.819 0-.625.124-1.131.37-1.519a2.61 2.61 0 0 1 .987-.924 5.203 5.203 0 0 1 1.364-.497 16.406 16.406 0 0 1 1.512-.27 72.061 72.061 0 0 1 1.613-.192c.416-.047.719-.125.909-.234.194-.109.291-.298.291-.568v-.057c0-.701-.192-1.245-.575-1.633-.379-.389-.954-.583-1.726-.583-.8 0-1.428.175-1.882.526-.455.35-.774.724-.959 1.122l-1.591-.568c.284-.663.663-1.179 1.136-1.549a4.266 4.266 0 0 1 1.563-.781 6.508 6.508 0 0 1 1.676-.227c.35 0 .753.042 1.207.128.46.08.902.248 1.328.504.431.256.789.642 1.073 1.158.284.516.426 1.207.426 2.073V230h-1.676v-1.477h-.085c-.114.236-.303.49-.568.76-.266.27-.618.499-1.059.689-.44.189-.977.284-1.612.284Zm.256-1.506c.663 0 1.221-.13 1.676-.391.459-.26.805-.596 1.037-1.008.237-.412.355-.845.355-1.3v-1.534c-.071.085-.227.163-.469.234a7.689 7.689 0 0 1-.824.178c-.307.047-.608.09-.902.128a40.94 40.94 0 0 0-.703.085 6.396 6.396 0 0 0-1.221.277c-.374.123-.677.31-.909.561-.228.246-.341.582-.341 1.009 0 .582.215 1.022.646 1.321.436.293.987.44 1.655.44Zm8.492 5.341a3.7 3.7 0 0 1-.76-.071 2 2 0 0 1-.461-.128l.426-1.477c.407.104.767.142 1.079.113a1.29 1.29 0 0 0 .831-.419c.247-.246.471-.646.675-1.2l.313-.852-4.035-10.966h1.819l3.011 8.693h.114l3.011-8.693h1.818l-4.63 12.5c-.209.563-.467 1.03-.775 1.399a2.897 2.897 0 0 1-1.072.831c-.403.18-.857.27-1.364.27ZM618.413 275l-3.977-14.545h1.79l3.039 11.846h.142l3.097-11.846h1.989l3.096 11.846h.142l3.04-11.846h1.79L628.584 275h-1.819l-3.21-11.591h-.113L620.231 275h-1.818Zm18.31.256a4.438 4.438 0 0 1-1.882-.391 3.23 3.23 0 0 1-1.343-1.143c-.331-.502-.497-1.108-.497-1.819 0-.625.123-1.131.37-1.519a2.61 2.61 0 0 1 .987-.924 5.21 5.21 0 0 1 1.363-.497 16.427 16.427 0 0 1 1.513-.27c.663-.085 1.2-.149 1.612-.192.417-.047.72-.125.91-.234.194-.109.291-.298.291-.568v-.057c0-.701-.192-1.245-.576-1.633-.378-.389-.954-.583-1.725-.583-.801 0-1.428.175-1.883.526-.454.35-.774.724-.958 1.122l-1.591-.568c.284-.663.663-1.179 1.136-1.549a4.259 4.259 0 0 1 1.563-.781 6.508 6.508 0 0 1 1.676-.227c.35 0 .753.042 1.207.128.459.08.902.248 1.328.504.431.256.789.642 1.073 1.158.284.516.426 1.207.426 2.073V275h-1.676v-1.477h-.086c-.113.236-.303.49-.568.76-.265.27-.618.499-1.058.689-.44.189-.978.284-1.612.284Zm.256-1.506c.662 0 1.221-.13 1.676-.391.459-.26.805-.596 1.037-1.008.236-.412.355-.845.355-1.3v-1.534c-.071.085-.228.163-.469.234a7.689 7.689 0 0 1-.824.178c-.308.047-.608.09-.902.128-.289.033-.523.061-.703.085a6.406 6.406 0 0 0-1.222.277c-.374.123-.677.31-.909.561-.227.246-.341.582-.341 1.009 0 .582.216 1.022.647 1.321.435.293.987.44 1.655.44Zm15.53-7.216-1.505.426a2.808 2.808 0 0 0-.419-.731 2.025 2.025 0 0 0-.739-.597c-.312-.156-.713-.234-1.2-.234-.668 0-1.224.154-1.669.461-.441.303-.661.689-.661 1.158 0 .417.152.746.455.987.303.242.776.443 1.42.604l1.62.398c.975.236 1.702.599 2.18 1.086.478.483.717 1.106.717 1.868 0 .625-.18 1.184-.539 1.676-.356.493-.853.881-1.492 1.165-.639.284-1.383.426-2.23.426-1.113 0-2.034-.241-2.763-.724-.729-.483-1.191-1.189-1.385-2.117l1.591-.397c.152.587.438 1.027.859 1.321.427.293.983.44 1.67.44.781 0 1.401-.166 1.86-.497.464-.336.696-.739.696-1.208 0-.378-.132-.696-.397-.951-.266-.261-.673-.455-1.222-.583l-1.818-.426c-.999-.237-1.733-.603-2.202-1.101-.464-.502-.696-1.129-.696-1.882 0-.615.173-1.16.519-1.633.35-.474.826-.845 1.427-1.115.606-.27 1.293-.405 2.06-.405 1.079 0 1.927.237 2.542.71a3.826 3.826 0 0 1 1.321 1.875Zm2.722 8.466v-10.909h1.62v1.704h.142a2.739 2.739 0 0 1 1.101-1.356c.506-.327 1.115-.49 1.825-.49.72 0 1.319.163 1.797.49.483.322.859.774 1.129 1.356h.114a3.179 3.179 0 0 1 1.257-1.342c.558-.336 1.228-.504 2.01-.504.975 0 1.773.305 2.393.916.62.606.931 1.551.931 2.834V275h-1.677v-7.301c0-.805-.22-1.38-.66-1.726-.44-.346-.959-.518-1.556-.518-.767 0-1.361.232-1.782.696-.422.459-.632 1.041-.632 1.747V275h-1.705v-7.472c0-.62-.201-1.119-.604-1.498-.402-.384-.92-.575-1.555-.575-.436 0-.843.116-1.222.348a2.633 2.633 0 0 0-.909.965c-.227.408-.341.879-.341 1.414V275h-1.676Zm21.957.227c-1.051 0-1.958-.232-2.72-.696-.758-.469-1.342-1.122-1.754-1.96-.408-.843-.611-1.823-.611-2.94 0-1.118.203-2.103.611-2.955.412-.857.984-1.524 1.718-2.003.739-.483 1.601-.724 2.586-.724.568 0 1.129.095 1.683.284a4.17 4.17 0 0 1 1.513.923c.454.422.816.98 1.086 1.676.27.696.405 1.553.405 2.571v.711h-8.409v-1.449h6.705c0-.616-.124-1.165-.37-1.648a2.775 2.775 0 0 0-1.037-1.143c-.445-.28-.97-.419-1.576-.419-.668 0-1.246.165-1.733.497a3.264 3.264 0 0 0-1.115 1.278 3.75 3.75 0 0 0-.391 1.69v.966c0 .824.142 1.523.426 2.096a3.074 3.074 0 0 0 1.2 1.299c.512.294 1.106.441 1.783.441.44 0 .838-.062 1.193-.185.36-.128.67-.317.931-.568.26-.256.461-.573.603-.952l1.62.455a3.586 3.586 0 0 1-.86 1.448 4.18 4.18 0 0 1-1.491.966c-.592.228-1.257.341-1.996.341Zm7.067-.227v-10.909h1.619v1.648h.114c.199-.54.558-.978 1.079-1.314a3.18 3.18 0 0 1 1.762-.505c.123 0 .277.003.461.008.185.004.325.011.419.021v1.704a5.332 5.332 0 0 0-.39-.064 3.867 3.867 0 0 0-.632-.049c-.531 0-1.004.111-1.421.334a2.51 2.51 0 0 0-.98.909 2.445 2.445 0 0 0-.355 1.314V275h-1.676Zm13.293 0v-14.545h8.779v1.562h-7.017v4.915h6.562v1.562h-6.562v4.944h7.131V275h-8.893Zm15.846.227c-.909 0-1.712-.229-2.408-.689-.696-.464-1.241-1.117-1.634-1.96-.393-.847-.589-1.849-.589-3.004 0-1.146.196-2.14.589-2.983.393-.843.94-1.494 1.641-1.953.701-.459 1.51-.689 2.429-.689.71 0 1.271.118 1.683.355.417.232.734.497.952.795.223.294.395.535.518.725h.143v-5.369h1.676V275h-1.62v-1.676h-.199c-.123.199-.298.45-.525.753-.227.298-.552.566-.973.802-.422.232-.983.348-1.683.348Zm.227-1.505c.672 0 1.24-.176 1.704-.526.464-.355.817-.845 1.059-1.47.241-.63.362-1.357.362-2.181 0-.814-.118-1.527-.355-2.137-.237-.616-.587-1.094-1.051-1.435-.464-.346-1.037-.518-1.719-.518-.71 0-1.302.182-1.776.546-.468.36-.821.85-1.058 1.471-.232.615-.348 1.306-.348 2.073 0 .777.118 1.482.355 2.117.242.63.597 1.132 1.066 1.506.473.369 1.06.554 1.761.554Zm12.479 5.596c-.81 0-1.506-.104-2.088-.312-.583-.204-1.068-.474-1.456-.81a4.445 4.445 0 0 1-.917-1.065l1.336-.938c.151.199.343.426.575.682.232.26.549.485.952.675.407.194.939.291 1.598.291.88 0 1.607-.213 2.18-.639.573-.426.859-1.094.859-2.003v-2.216h-.142a9.09 9.09 0 0 1-.525.739c-.223.288-.545.546-.966.774-.417.222-.98.334-1.69.334-.881 0-1.672-.209-2.373-.625-.696-.417-1.247-1.023-1.654-1.819-.403-.795-.604-1.761-.604-2.897 0-1.118.196-2.091.589-2.919.393-.834.94-1.478 1.641-1.932.701-.459 1.51-.689 2.429-.689.71 0 1.274.118 1.69.355.422.232.744.497.966.795.227.294.403.535.526.725h.17v-1.733h1.62v11.221c0 .938-.214 1.7-.64 2.287a3.632 3.632 0 0 1-1.704 1.3c-.71.28-1.501.419-2.372.419Zm-.057-5.994c.672 0 1.24-.154 1.704-.462.464-.308.817-.75 1.059-1.328.241-.578.362-1.269.362-2.074 0-.786-.119-1.479-.355-2.081-.237-.601-.587-1.072-1.051-1.413-.464-.341-1.037-.511-1.719-.511-.71 0-1.302.179-1.776.539-.469.36-.821.843-1.058 1.449-.232.606-.348 1.279-.348 2.017 0 .758.118 1.428.355 2.01.242.578.597 1.032 1.065 1.364.474.327 1.061.49 1.762.49Zm12.415 1.903c-1.052 0-1.958-.232-2.721-.696a4.677 4.677 0 0 1-1.754-1.96c-.407-.843-.611-1.823-.611-2.94 0-1.118.204-2.103.611-2.955.412-.857.985-1.524 1.719-2.003.739-.483 1.6-.724 2.585-.724.568 0 1.129.095 1.683.284a4.162 4.162 0 0 1 1.513.923c.455.422.817.98 1.087 1.676s.405 1.553.405 2.571v.711h-8.409v-1.449h6.704c0-.616-.123-1.165-.369-1.648a2.782 2.782 0 0 0-1.037-1.143c-.445-.28-.971-.419-1.577-.419-.668 0-1.245.165-1.733.497a3.272 3.272 0 0 0-1.115 1.278 3.762 3.762 0 0 0-.391 1.69v.966c0 .824.143 1.523.427 2.096a3.068 3.068 0 0 0 1.2 1.299c.511.294 1.105.441 1.783.441.44 0 .838-.062 1.193-.185.36-.128.67-.317.93-.568.261-.256.462-.573.604-.952l1.619.455a3.584 3.584 0 0 1-.859 1.448c-.403.412-.9.734-1.492.966-.592.228-1.257.341-1.995.341ZM603.941 321l-3.978-14.545h1.79l3.04 11.846h.142l3.096-11.846h1.989l3.097 11.846h.142l3.039-11.846h1.79L614.111 321h-1.818l-3.21-11.591h-.114L605.759 321h-1.818Zm18.309.256a4.442 4.442 0 0 1-1.882-.391 3.228 3.228 0 0 1-1.342-1.143c-.332-.502-.497-1.108-.497-1.819 0-.625.123-1.131.369-1.519a2.61 2.61 0 0 1 .987-.924 5.216 5.216 0 0 1 1.364-.497 16.367 16.367 0 0 1 1.513-.27c.662-.085 1.2-.149 1.612-.192.416-.047.719-.125.909-.234.194-.109.291-.298.291-.568v-.057c0-.701-.192-1.245-.575-1.633-.379-.389-.954-.583-1.726-.583-.8 0-1.428.175-1.882.526-.455.35-.774.724-.959 1.122l-1.591-.568c.284-.663.663-1.179 1.136-1.549.479-.374 1-.634 1.563-.781a6.508 6.508 0 0 1 1.676-.227c.35 0 .753.042 1.207.128.46.08.902.248 1.329.504.43.256.788.642 1.072 1.158.284.516.426 1.207.426 2.073V321h-1.676v-1.477h-.085c-.114.236-.303.49-.568.76-.266.27-.618.499-1.059.689-.44.189-.977.284-1.612.284Zm.256-1.506c.663 0 1.221-.13 1.676-.391.459-.26.805-.596 1.037-1.008.237-.412.355-.845.355-1.3v-1.534c-.071.085-.227.163-.469.234a7.636 7.636 0 0 1-.824.178c-.307.047-.608.09-.902.128a40.94 40.94 0 0 0-.703.085 6.413 6.413 0 0 0-1.221.277c-.374.123-.677.31-.909.561-.228.246-.341.582-.341 1.009 0 .582.215 1.022.646 1.321.436.293.987.44 1.655.44Zm15.531-7.216-1.506.426a2.78 2.78 0 0 0-.419-.731 2.025 2.025 0 0 0-.739-.597c-.312-.156-.712-.234-1.2-.234-.667 0-1.224.154-1.669.461-.44.303-.66.689-.66 1.158 0 .417.151.746.454.987.303.242.777.443 1.421.604l1.619.398c.975.236 1.702.599 2.18 1.086.479.483.718 1.106.718 1.868 0 .625-.18 1.184-.54 1.676-.355.493-.852.881-1.492 1.165-.639.284-1.382.426-2.23.426-1.112 0-2.033-.241-2.763-.724-.729-.483-1.19-1.189-1.384-2.117l1.59-.397c.152.587.438 1.027.86 1.321.426.293.982.44 1.669.44.781 0 1.401-.166 1.861-.497.464-.336.696-.739.696-1.208 0-.378-.133-.696-.398-.951-.265-.261-.672-.455-1.222-.583l-1.818-.426c-.999-.237-1.733-.603-2.202-1.101-.464-.502-.696-1.129-.696-1.882 0-.615.173-1.16.519-1.633.35-.474.826-.845 1.427-1.115.607-.27 1.293-.405 2.06-.405 1.08 0 1.927.237 2.543.71a3.839 3.839 0 0 1 1.321 1.875Zm2.722 8.466v-10.909h1.619v1.704h.142a2.739 2.739 0 0 1 1.101-1.356c.507-.327 1.115-.49 1.825-.49.72 0 1.319.163 1.797.49.483.322.859.774 1.129 1.356h.114a3.179 3.179 0 0 1 1.257-1.342c.559-.336 1.229-.504 2.01-.504.975 0 1.773.305 2.393.916.621.606.931 1.551.931 2.834V321h-1.676v-7.301c0-.805-.22-1.38-.661-1.726-.44-.346-.959-.518-1.555-.518-.767 0-1.361.232-1.783.696-.421.459-.632 1.041-.632 1.747V321h-1.704v-7.472c0-.62-.202-1.119-.604-1.498-.403-.384-.921-.575-1.556-.575-.435 0-.842.116-1.221.348a2.633 2.633 0 0 0-.909.965c-.228.408-.341.879-.341 1.414V321h-1.676Zm21.956.227c-1.051 0-1.957-.232-2.72-.696a4.677 4.677 0 0 1-1.754-1.96c-.407-.843-.611-1.823-.611-2.94 0-1.118.204-2.103.611-2.955.412-.857.985-1.524 1.719-2.003.738-.483 1.6-.724 2.585-.724.568 0 1.129.095 1.683.284a4.17 4.17 0 0 1 1.513.923c.454.422.817.98 1.087 1.676.269.696.404 1.553.404 2.571v.711h-8.409v-1.449h6.705c0-.616-.123-1.165-.369-1.648a2.788 2.788 0 0 0-1.037-1.143c-.445-.28-.971-.419-1.577-.419-.668 0-1.245.165-1.733.497a3.264 3.264 0 0 0-1.115 1.278 3.75 3.75 0 0 0-.391 1.69v.966c0 .824.142 1.523.426 2.096a3.07 3.07 0 0 0 1.201 1.299c.511.294 1.105.441 1.782.441.441 0 .838-.062 1.194-.185.359-.128.67-.317.93-.568.26-.256.462-.573.604-.952l1.619.455a3.584 3.584 0 0 1-.859 1.448c-.403.412-.9.734-1.492.966-.592.228-1.257.341-1.996.341Zm7.067-.227v-10.909h1.619v1.648h.114c.199-.54.559-.978 1.08-1.314a3.177 3.177 0 0 1 1.761-.505c.123 0 .277.003.462.008.184.004.324.011.419.021v1.704a5.397 5.397 0 0 0-.391-.064 3.867 3.867 0 0 0-.632-.049 2.96 2.96 0 0 0-1.42.334c-.412.217-.739.52-.981.909a2.454 2.454 0 0 0-.355 1.314V321h-1.676Zm13.294 0v-14.545h4.915c1.136 0 2.069.194 2.798.582.729.383 1.269.911 1.619 1.584.351.672.526 1.437.526 2.294s-.175 1.617-.526 2.28c-.35.662-.888 1.183-1.612 1.562-.724.374-1.65.561-2.777.561h-3.977v-1.591h3.92c.777 0 1.402-.113 1.875-.341.478-.227.824-.549 1.037-.966.218-.421.327-.923.327-1.505 0-.583-.109-1.092-.327-1.527-.218-.436-.566-.772-1.044-1.009-.478-.241-1.11-.362-1.896-.362h-3.097V321h-1.761Zm6.846-6.534 3.58 6.534h-2.046l-3.522-6.534h1.988Zm12.595 2.074v-6.449h1.676V321h-1.676v-1.847h-.114a3.587 3.587 0 0 1-1.193 1.414c-.54.383-1.222.575-2.046.575-.682 0-1.288-.149-1.818-.447-.53-.303-.947-.758-1.25-1.364-.303-.611-.454-1.38-.454-2.308v-6.932h1.676v6.818c0 .796.222 1.43.667 1.903.45.474 1.023.711 1.719.711.417 0 .84-.107 1.271-.32.436-.213.801-.54 1.094-.98.298-.44.448-1.001.448-1.683Zm6.422-2.102V321h-1.676v-10.909h1.619v1.704h.142a3.115 3.115 0 0 1 1.165-1.335c.521-.341 1.193-.511 2.017-.511.738 0 1.385.151 1.939.454.554.299.985.753 1.292 1.364.308.606.462 1.373.462 2.301V321h-1.676v-6.818c0-.857-.223-1.525-.668-2.003-.445-.483-1.056-.724-1.832-.724-.535 0-1.013.116-1.435.348a2.49 2.49 0 0 0-.987 1.015c-.242.445-.362.985-.362 1.62Zm14.767-4.347v1.42h-5.653v-1.42h5.653Zm-4.006-2.614h1.677v10.398c0 .473.068.829.206 1.065.142.232.322.389.539.469.223.076.457.114.703.114.185 0 .337-.01.455-.029l.284-.056.341 1.505a3.41 3.41 0 0 1-.476.128 3.516 3.516 0 0 1-.774.071c-.473 0-.937-.102-1.392-.305a2.764 2.764 0 0 1-1.122-.931c-.294-.416-.441-.942-.441-1.576v-10.853ZM726.227 321v-10.909h1.677V321h-1.677Zm.853-12.727c-.327 0-.609-.112-.845-.334a1.073 1.073 0 0 1-.348-.803c0-.312.116-.58.348-.802.236-.223.518-.334.845-.334.326 0 .606.111.838.334.237.222.355.49.355.802 0 .313-.118.58-.355.803a1.17 1.17 0 0 1-.838.334ZM730.974 321v-10.909h1.619v1.704h.142a2.739 2.739 0 0 1 1.101-1.356c.506-.327 1.115-.49 1.825-.49.72 0 1.319.163 1.797.49.483.322.859.774 1.129 1.356h.114a3.179 3.179 0 0 1 1.257-1.342c.559-.336 1.229-.504 2.01-.504.975 0 1.773.305 2.393.916.621.606.931 1.551.931 2.834V321h-1.676v-7.301c0-.805-.221-1.38-.661-1.726-.44-.346-.959-.518-1.555-.518-.767 0-1.362.232-1.783.696-.421.459-.632 1.041-.632 1.747V321h-1.705v-7.472c0-.62-.201-1.119-.603-1.498-.403-.384-.921-.575-1.556-.575-.435 0-.843.116-1.221.348a2.633 2.633 0 0 0-.909.965c-.228.408-.341.879-.341 1.414V321h-1.676Zm21.956.227c-1.051 0-1.958-.232-2.72-.696-.758-.469-1.342-1.122-1.754-1.96-.407-.843-.611-1.823-.611-2.94 0-1.118.204-2.103.611-2.955.412-.857.985-1.524 1.719-2.003.738-.483 1.6-.724 2.585-.724.568 0 1.129.095 1.683.284a4.17 4.17 0 0 1 1.513.923c.454.422.817.98 1.086 1.676.27.696.405 1.553.405 2.571v.711h-8.409v-1.449h6.705c0-.616-.123-1.165-.37-1.648a2.775 2.775 0 0 0-1.037-1.143c-.445-.28-.97-.419-1.576-.419-.668 0-1.245.165-1.733.497a3.264 3.264 0 0 0-1.115 1.278 3.75 3.75 0 0 0-.391 1.69v.966c0 .824.142 1.523.426 2.096a3.07 3.07 0 0 0 1.201 1.299c.511.294 1.105.441 1.782.441.441 0 .838-.062 1.193-.185.36-.128.67-.317.931-.568.26-.256.461-.573.603-.952l1.62.455a3.586 3.586 0 0 1-.86 1.448 4.18 4.18 0 0 1-1.491.966c-.592.228-1.257.341-1.996.341ZM615.405 368l-3.977-14.545h1.79l3.04 11.846h.142l3.096-11.846h1.989l3.096 11.846h.143l3.039-11.846h1.79L625.576 368h-1.818l-3.211-11.591h-.113L617.224 368h-1.819Zm18.31.256a4.438 4.438 0 0 1-1.882-.391 3.222 3.222 0 0 1-1.342-1.143c-.332-.502-.498-1.108-.498-1.819 0-.625.124-1.131.37-1.519a2.61 2.61 0 0 1 .987-.924 5.203 5.203 0 0 1 1.364-.497 16.346 16.346 0 0 1 1.512-.27 72.061 72.061 0 0 1 1.613-.192c.416-.047.719-.125.909-.234.194-.109.291-.298.291-.568v-.057c0-.701-.192-1.245-.575-1.633-.379-.389-.954-.583-1.726-.583-.8 0-1.428.175-1.882.526-.455.35-.775.724-.959 1.122l-1.591-.568c.284-.663.663-1.179 1.136-1.549a4.266 4.266 0 0 1 1.563-.781 6.508 6.508 0 0 1 1.676-.227c.35 0 .753.042 1.207.128.46.08.902.248 1.328.504.431.256.789.642 1.073 1.158.284.516.426 1.207.426 2.073V368h-1.676v-1.477h-.085c-.114.236-.303.49-.569.76-.265.27-.617.499-1.058.689-.44.189-.978.284-1.612.284Zm.256-1.506c.663 0 1.221-.13 1.676-.391.459-.26.805-.596 1.037-1.008.237-.412.355-.845.355-1.3v-1.534c-.071.085-.227.163-.469.234a7.689 7.689 0 0 1-.824.178c-.307.047-.608.09-.902.128-.289.033-.523.061-.703.085a6.396 6.396 0 0 0-1.221.277c-.374.123-.678.31-.91.561-.227.246-.34.582-.34 1.009 0 .582.215 1.022.646 1.321.435.293.987.44 1.655.44Zm15.531-7.216-1.506.426a2.78 2.78 0 0 0-.419-.731 2.025 2.025 0 0 0-.739-.597c-.312-.156-.712-.234-1.2-.234-.668 0-1.224.154-1.669.461-.44.303-.661.689-.661 1.158 0 .417.152.746.455.987.303.242.776.443 1.42.604l1.62.398c.975.236 1.702.599 2.18 1.086.478.483.717 1.106.717 1.868 0 .625-.179 1.184-.539 1.676-.355.493-.853.881-1.492 1.165-.639.284-1.382.426-2.23.426-1.113 0-2.034-.241-2.763-.724-.729-.483-1.191-1.189-1.385-2.117l1.591-.397c.152.587.438 1.027.86 1.321.426.293.982.44 1.669.44.781 0 1.401-.166 1.86-.497.464-.336.697-.739.697-1.208 0-.378-.133-.696-.398-.951-.265-.261-.673-.455-1.222-.583l-1.818-.426c-.999-.237-1.733-.603-2.202-1.101-.464-.502-.696-1.129-.696-1.882 0-.615.173-1.16.519-1.633.35-.474.826-.845 1.427-1.115.606-.27 1.293-.405 2.06-.405 1.08 0 1.927.237 2.543.71a3.839 3.839 0 0 1 1.321 1.875Zm2.722 8.466v-10.909h1.619v1.704h.142a2.739 2.739 0 0 1 1.101-1.356c.506-.327 1.115-.49 1.825-.49.72 0 1.319.163 1.797.49.483.322.859.774 1.129 1.356h.114a3.179 3.179 0 0 1 1.257-1.342c.559-.336 1.229-.504 2.01-.504.975 0 1.773.305 2.393.916.621.606.931 1.551.931 2.834V368h-1.676v-7.301c0-.805-.221-1.38-.661-1.726-.44-.346-.959-.518-1.555-.518-.767 0-1.362.232-1.783.696-.421.459-.632 1.041-.632 1.747V368h-1.705v-7.472c0-.62-.201-1.119-.603-1.498-.403-.384-.921-.575-1.556-.575-.435 0-.843.116-1.221.348a2.633 2.633 0 0 0-.909.965c-.228.408-.341.879-.341 1.414V368h-1.676Zm21.956.227c-1.051 0-1.958-.232-2.72-.696-.758-.469-1.342-1.122-1.754-1.96-.407-.843-.611-1.823-.611-2.94 0-1.118.204-2.103.611-2.955.412-.857.985-1.524 1.719-2.003.738-.483 1.6-.724 2.585-.724.568 0 1.129.095 1.683.284a4.17 4.17 0 0 1 1.513.923c.454.422.817.98 1.086 1.676.27.696.405 1.553.405 2.571v.711h-8.409v-1.449h6.705c0-.616-.123-1.165-.37-1.648a2.775 2.775 0 0 0-1.037-1.143c-.445-.28-.97-.419-1.576-.419-.668 0-1.245.165-1.733.497a3.264 3.264 0 0 0-1.115 1.278 3.75 3.75 0 0 0-.391 1.69v.966c0 .824.142 1.523.426 2.096a3.07 3.07 0 0 0 1.201 1.299c.511.294 1.105.441 1.782.441.441 0 .838-.062 1.193-.185.36-.128.67-.317.931-.568.26-.256.461-.573.603-.952l1.62.455a3.586 3.586 0 0 1-.86 1.448 4.18 4.18 0 0 1-1.491.966c-.592.228-1.257.341-1.996.341Zm7.067-.227v-10.909h1.619v1.648h.114c.199-.54.559-.978 1.079-1.314a3.18 3.18 0 0 1 1.762-.505c.123 0 .277.003.461.008.185.004.325.011.42.021v1.704a5.397 5.397 0 0 0-.391-.064 3.867 3.867 0 0 0-.632-.049c-.531 0-1.004.111-1.421.334a2.51 2.51 0 0 0-.98.909 2.445 2.445 0 0 0-.355 1.314V368h-1.676Zm17.782 0h-4.488v-14.545h4.687c1.411 0 2.619.291 3.622.873 1.004.578 1.774 1.409 2.309 2.493.535 1.08.802 2.372.802 3.878 0 1.515-.27 2.819-.81 3.913a5.763 5.763 0 0 1-2.357 2.514c-1.033.583-2.287.874-3.765.874Zm-2.727-1.562h2.614c1.202 0 2.199-.233 2.99-.697a4.29 4.29 0 0 0 1.768-1.981c.388-.857.583-1.877.583-3.061 0-1.174-.192-2.185-.576-3.033-.383-.852-.956-1.505-1.718-1.96-.763-.459-1.712-.689-2.848-.689h-2.813v11.421Zm24.148-12.983V368h-1.705l-7.926-11.42h-.142V368h-1.761v-14.545h1.704l7.955 11.448h.142v-11.448h1.733ZM723.974 368v-14.545h8.779v1.562h-7.017v4.915h6.562v1.562h-6.562v4.944h7.13V368h-8.892Zm11.158-12.983v-1.562h10.909v1.562h-4.574V368h-1.761v-12.983h-4.574ZM605.327 414l-3.977-14.545h1.79l3.04 11.846h.142l3.096-11.846h1.989l3.096 11.846h.142l3.04-11.846h1.79L615.498 414h-1.818l-3.211-11.591h-.113L607.145 414h-1.818Zm18.31.256a4.438 4.438 0 0 1-1.882-.391 3.23 3.23 0 0 1-1.343-1.143c-.331-.502-.497-1.108-.497-1.819 0-.625.123-1.131.37-1.519a2.61 2.61 0 0 1 .987-.924 5.21 5.21 0 0 1 1.363-.497 16.427 16.427 0 0 1 1.513-.27 72.791 72.791 0 0 1 1.612-.192c.417-.047.72-.125.91-.234.194-.109.291-.298.291-.568v-.057c0-.701-.192-1.245-.576-1.633-.378-.389-.954-.583-1.725-.583-.801 0-1.428.175-1.882.526-.455.35-.775.724-.959 1.122l-1.591-.568c.284-.663.663-1.179 1.136-1.549a4.259 4.259 0 0 1 1.563-.781 6.508 6.508 0 0 1 1.676-.227c.35 0 .753.042 1.207.128.459.08.902.248 1.328.504.431.256.789.642 1.073 1.158.284.516.426 1.207.426 2.073V414h-1.676v-1.477h-.085c-.114.236-.303.49-.569.76-.265.27-.618.499-1.058.689-.44.189-.978.284-1.612.284Zm.256-1.506c.662 0 1.221-.13 1.676-.391.459-.26.805-.596 1.037-1.008.236-.412.355-.845.355-1.3v-1.534c-.071.085-.228.163-.469.234a7.689 7.689 0 0 1-.824.178c-.308.047-.608.09-.902.128-.289.033-.523.061-.703.085a6.406 6.406 0 0 0-1.222.277c-.374.123-.677.31-.909.561-.227.246-.341.582-.341 1.009 0 .582.216 1.022.647 1.321.435.293.987.44 1.655.44Zm15.53-7.216-1.505.426a2.808 2.808 0 0 0-.419-.731 2.025 2.025 0 0 0-.739-.597c-.312-.156-.712-.234-1.2-.234-.668 0-1.224.154-1.669.461-.441.303-.661.689-.661 1.158 0 .417.152.746.455.987.303.242.776.443 1.42.604l1.62.398c.975.236 1.702.599 2.18 1.086.478.483.717 1.106.717 1.868 0 .625-.18 1.184-.539 1.676-.356.493-.853.881-1.492 1.165-.639.284-1.382.426-2.23.426-1.113 0-2.034-.241-2.763-.724-.729-.483-1.191-1.189-1.385-2.117l1.591-.397c.152.587.438 1.027.86 1.321.426.293.982.44 1.669.44.781 0 1.401-.166 1.86-.497.464-.336.696-.739.696-1.208 0-.378-.132-.696-.397-.951-.265-.261-.673-.455-1.222-.583l-1.818-.426c-.999-.237-1.733-.603-2.202-1.101-.464-.502-.696-1.129-.696-1.882 0-.615.173-1.16.519-1.633.35-.474.826-.845 1.427-1.115.606-.27 1.293-.405 2.06-.405 1.079 0 1.927.237 2.542.71a3.826 3.826 0 0 1 1.321 1.875Zm2.722 8.466v-10.909h1.62v1.704h.142a2.739 2.739 0 0 1 1.101-1.356c.506-.327 1.115-.49 1.825-.49.72 0 1.319.163 1.797.49.483.322.859.774 1.129 1.356h.114a3.179 3.179 0 0 1 1.257-1.342c.559-.336 1.228-.504 2.01-.504.975 0 1.773.305 2.393.916.62.606.931 1.551.931 2.834V414h-1.677v-7.301c0-.805-.22-1.38-.66-1.726-.44-.346-.959-.518-1.555-.518-.767 0-1.362.232-1.783.696-.422.459-.632 1.041-.632 1.747V414h-1.705v-7.472c0-.62-.201-1.119-.603-1.498-.403-.384-.921-.575-1.556-.575-.435 0-.843.116-1.221.348a2.635 2.635 0 0 0-.91.965c-.227.408-.34.879-.34 1.414V414h-1.677Zm21.957.227c-1.051 0-1.958-.232-2.72-.696-.758-.469-1.342-1.122-1.754-1.96-.408-.843-.611-1.823-.611-2.94 0-1.118.203-2.103.611-2.955.412-.857.985-1.524 1.718-2.003.739-.483 1.601-.724 2.586-.724.568 0 1.129.095 1.683.284a4.17 4.17 0 0 1 1.513.923c.454.422.816.98 1.086 1.676.27.696.405 1.553.405 2.571v.711h-8.409v-1.449h6.705c0-.616-.124-1.165-.37-1.648a2.775 2.775 0 0 0-1.037-1.143c-.445-.28-.97-.419-1.576-.419-.668 0-1.246.165-1.733.497a3.264 3.264 0 0 0-1.115 1.278 3.75 3.75 0 0 0-.391 1.69v.966c0 .824.142 1.523.426 2.096a3.074 3.074 0 0 0 1.2 1.299c.512.294 1.106.441 1.783.441.44 0 .838-.062 1.193-.185.36-.128.67-.317.931-.568.26-.256.461-.573.603-.952l1.62.455a3.586 3.586 0 0 1-.86 1.448 4.18 4.18 0 0 1-1.491.966c-.592.228-1.257.341-1.996.341Zm7.067-.227v-10.909h1.619v1.648h.114c.199-.54.559-.978 1.079-1.314a3.18 3.18 0 0 1 1.762-.505c.123 0 .277.003.461.008.185.004.325.011.419.021v1.704a5.332 5.332 0 0 0-.39-.064 3.867 3.867 0 0 0-.632-.049c-.531 0-1.004.111-1.421.334a2.51 2.51 0 0 0-.98.909 2.445 2.445 0 0 0-.355 1.314V414h-1.676Zm21.248-10.909a2.227 2.227 0 0 0-1.037-1.676c-.606-.398-1.349-.597-2.23-.597-.644 0-1.207.104-1.69.313-.479.208-.853.494-1.122.859a2.056 2.056 0 0 0-.398 1.243c0 .388.092.722.277 1.001.189.275.431.505.724.689.294.18.602.329.924.448.321.113.617.206.887.277l1.478.397c.378.1.8.237 1.264.412.469.176.916.415 1.342.718a3.65 3.65 0 0 1 1.065 1.15c.28.469.419 1.044.419 1.726a3.83 3.83 0 0 1-.617 2.131c-.408.634-1.004 1.139-1.79 1.513-.781.374-1.731.561-2.848.561-1.042 0-1.944-.168-2.706-.505-.758-.336-1.354-.805-1.79-1.406-.431-.601-.675-1.3-.731-2.095h1.818c.047.549.232 1.004.554 1.364.326.355.738.62 1.235.795a4.992 4.992 0 0 0 1.62.256c.672 0 1.276-.109 1.811-.327.535-.222.959-.53 1.271-.923.313-.398.469-.862.469-1.392 0-.483-.135-.876-.405-1.179-.27-.303-.625-.549-1.065-.739a11.257 11.257 0 0 0-1.428-.497l-1.79-.511c-1.136-.327-2.036-.793-2.698-1.4-.663-.606-.995-1.399-.995-2.379 0-.814.22-1.524.661-2.13.445-.611 1.041-1.085 1.79-1.421.752-.341 1.593-.511 2.521-.511.937 0 1.771.168 2.5.504.729.331 1.307.786 1.733 1.364.431.577.658 1.233.682 1.967h-1.705Zm9.316 0v1.42h-5.653v-1.42h5.653Zm-4.005-2.614h1.676v10.398c0 .473.069.829.206 1.065.142.232.322.389.54.469.222.076.457.114.703.114.184 0 .336-.01.454-.029l.284-.056.341 1.505a3.37 3.37 0 0 1-.476.128 3.516 3.516 0 0 1-.774.071c-.473 0-.937-.102-1.392-.305a2.764 2.764 0 0 1-1.122-.931c-.293-.416-.44-.942-.44-1.576v-10.853Zm10.841 13.75c-.984 0-1.849-.234-2.592-.703-.739-.469-1.316-1.124-1.733-1.967-.412-.843-.618-1.828-.618-2.955 0-1.136.206-2.128.618-2.976.417-.847.994-1.505 1.733-1.974.743-.469 1.608-.703 2.592-.703.985 0 1.847.234 2.586.703.743.469 1.321 1.127 1.733 1.974.416.848.625 1.84.625 2.976 0 1.127-.209 2.112-.625 2.955-.412.843-.99 1.498-1.733 1.967-.739.469-1.601.703-2.586.703Zm0-1.505c.749 0 1.364-.192 1.847-.576.483-.383.84-.887 1.072-1.512a5.797 5.797 0 0 0 .348-2.032 5.85 5.85 0 0 0-.348-2.038c-.232-.63-.589-1.139-1.072-1.527-.483-.388-1.098-.582-1.847-.582-.748 0-1.363.194-1.846.582a3.433 3.433 0 0 0-1.073 1.527 5.85 5.85 0 0 0-.348 2.038c0 .729.116 1.407.348 2.032.232.625.59 1.129 1.073 1.512.483.384 1.098.576 1.846.576Zm7.502 1.278v-10.909h1.62v1.648h.113c.199-.54.559-.978 1.08-1.314a3.18 3.18 0 0 1 1.761-.505c.123 0 .277.003.462.008.184.004.324.011.419.021v1.704a5.397 5.397 0 0 0-.391-.064 3.858 3.858 0 0 0-.632-.049 2.96 2.96 0 0 0-1.42.334c-.412.217-.739.52-.981.909a2.454 2.454 0 0 0-.355 1.314V414h-1.676Zm10.652.256a4.438 4.438 0 0 1-1.882-.391 3.23 3.23 0 0 1-1.343-1.143c-.331-.502-.497-1.108-.497-1.819 0-.625.123-1.131.37-1.519a2.61 2.61 0 0 1 .987-.924 5.21 5.21 0 0 1 1.363-.497 16.427 16.427 0 0 1 1.513-.27c.663-.085 1.2-.149 1.612-.192.417-.047.72-.125.91-.234.194-.109.291-.298.291-.568v-.057c0-.701-.192-1.245-.576-1.633-.378-.389-.954-.583-1.725-.583-.801 0-1.428.175-1.883.526-.454.35-.774.724-.958 1.122l-1.591-.568c.284-.663.663-1.179 1.136-1.549a4.259 4.259 0 0 1 1.563-.781 6.508 6.508 0 0 1 1.676-.227c.35 0 .753.042 1.207.128.459.08.902.248 1.328.504.431.256.789.642 1.073 1.158.284.516.426 1.207.426 2.073V414h-1.676v-1.477h-.086c-.113.236-.303.49-.568.76-.265.27-.618.499-1.058.689-.44.189-.978.284-1.612.284Zm.256-1.506c.662 0 1.221-.13 1.676-.391.459-.26.805-.596 1.037-1.008.236-.412.355-.845.355-1.3v-1.534c-.071.085-.228.163-.469.234a7.689 7.689 0 0 1-.824.178c-.308.047-.608.09-.902.128-.289.033-.523.061-.703.085a6.406 6.406 0 0 0-1.222.277c-.374.123-.677.31-.909.561-.227.246-.341.582-.341 1.009 0 .582.216 1.022.647 1.321.435.293.987.44 1.655.44Zm12.207 5.568c-.81 0-1.506-.104-2.089-.312-.582-.204-1.067-.474-1.455-.81a4.445 4.445 0 0 1-.917-1.065l1.336-.938c.151.199.343.426.575.682.232.26.549.485.952.675.407.194.939.291 1.598.291.88 0 1.607-.213 2.18-.639.573-.426.859-1.094.859-2.003v-2.216h-.142a9.09 9.09 0 0 1-.525.739c-.223.288-.545.546-.966.774-.417.222-.98.334-1.691.334-.88 0-1.671-.209-2.372-.625-.696-.417-1.247-1.023-1.655-1.819-.402-.795-.603-1.761-.603-2.897 0-1.118.196-2.091.589-2.919.393-.834.94-1.478 1.641-1.932.701-.459 1.51-.689 2.429-.689.71 0 1.274.118 1.69.355.422.232.744.497.966.795.227.294.403.535.526.725h.17v-1.733h1.619v11.221c0 .938-.213 1.7-.639 2.287a3.632 3.632 0 0 1-1.704 1.3c-.711.28-1.501.419-2.372.419Zm-.057-5.994c.672 0 1.24-.154 1.704-.462.464-.308.817-.75 1.059-1.328.241-.578.362-1.269.362-2.074 0-.786-.119-1.479-.355-2.081-.237-.601-.588-1.072-1.052-1.413-.464-.341-1.036-.511-1.718-.511-.71 0-1.302.179-1.776.539-.469.36-.821.843-1.058 1.449-.232.606-.348 1.279-.348 2.017 0 .758.118 1.428.355 2.01.242.578.597 1.032 1.065 1.364.474.327 1.061.49 1.762.49Zm12.415 1.903c-1.052 0-1.958-.232-2.721-.696a4.677 4.677 0 0 1-1.754-1.96c-.407-.843-.611-1.823-.611-2.94 0-1.118.204-2.103.611-2.955.412-.857.985-1.524 1.719-2.003.738-.483 1.6-.724 2.585-.724.568 0 1.129.095 1.683.284a4.162 4.162 0 0 1 1.513.923c.455.422.817.98 1.087 1.676s.405 1.553.405 2.571v.711h-8.41v-1.449h6.705c0-.616-.123-1.165-.369-1.648a2.782 2.782 0 0 0-1.037-1.143c-.445-.28-.971-.419-1.577-.419-.668 0-1.245.165-1.733.497a3.264 3.264 0 0 0-1.115 1.278 3.762 3.762 0 0 0-.391 1.69v.966c0 .824.142 1.523.427 2.096a3.062 3.062 0 0 0 1.2 1.299c.511.294 1.105.441 1.783.441.44 0 .838-.062 1.193-.185.36-.128.67-.317.93-.568.26-.256.462-.573.604-.952l1.619.455a3.584 3.584 0 0 1-.859 1.448c-.403.412-.9.734-1.492.966-.592.228-1.257.341-1.995.341Z"/>
</svg>
