<svg xmlns="http://www.w3.org/2000/svg" width="551" height="286" fill="none" viewBox="0 0 551 286">
  <path fill="#000" stroke="#fff" d="M5 148.5h181a4.5 4.5 0 0 1 4.5 4.5v40.5H.5V153a4.5 4.5 0 0 1 4.5-4.5Z"/>
  <mask id="a" fill="#fff">
    <path d="M0 194h191v46H0v-46Z"/>
  </mask>
  <path fill="#000" d="M0 194h191v46H0v-46Z"/>
  <path fill="#fff" d="M191 240v1h1v-1h-1ZM0 240h-1v1h1v-1Zm190-46v46h2v-46h-2Zm1 45H0v2h191v-2ZM1 240v-46h-2v46h2Z" mask="url(#a)"/>
  <mask id="b" fill="#fff">
    <path d="M0 5a5 5 0 0 1 5-5h181a5 5 0 0 1 5 5v36a5 5 0 0 1-5 5H5a5 5 0 0 1-5-5V5Z"/>
  </mask>
  <path fill="#000" d="M0 5a5 5 0 0 1 5-5h181a5 5 0 0 1 5 5v36a5 5 0 0 1-5 5H5a5 5 0 0 1-5-5V5Z"/>
  <path fill="#fff" d="M-1 5a6 6 0 0 1 6-6h181a6 6 0 0 1 6 6h-2a4 4 0 0 0-4-4H5a4 4 0 0 0-4 4h-2Zm193 36a6 6 0 0 1-6 6H5a6 6 0 0 1-6-6h2a4 4 0 0 0 4 4h181a4 4 0 0 0 4-4h2ZM5 47a6 6 0 0 1-6-6V5a6 6 0 0 1 6-6v2a4 4 0 0 0-4 4v36a4 4 0 0 0 4 4v2ZM186-1a6 6 0 0 1 6 6v36a6 6 0 0 1-6 6v-2a4 4 0 0 0 4-4V5a4 4 0 0 0-4-4v-2Z" mask="url(#b)"/>
  <mask id="c" fill="#fff">
    <path d="M0 240h191v41a5 5 0 0 1-5 5H5a5 5 0 0 1-5-5v-41Z"/>
  </mask>
  <path fill="#000" d="M0 240h191v41a5 5 0 0 1-5 5H5a5 5 0 0 1-5-5v-41Z"/>
  <path fill="#fff" d="M0 240h191H0Zm192 41a6 6 0 0 1-6 6H5a6 6 0 0 1-6-6h2a4 4 0 0 0 4 4h181a4 4 0 0 0 4-4h2ZM5 287a6 6 0 0 1-6-6v-41h2v41a4 4 0 0 0 4 4v2Zm187-47v41a6 6 0 0 1-6 6v-2a4 4 0 0 0 4-4v-41h2Z" mask="url(#c)"/>
  <path fill="#000" stroke="#fff" d="M365 148.5h181a4.5 4.5 0 0 1 4.5 4.5v40.5h-190V153a4.5 4.5 0 0 1 4.5-4.5Z"/>
  <mask id="d" fill="#fff">
    <path d="M360 194h191v46H360v-46Z"/>
  </mask>
  <path fill="#000" d="M360 194h191v46H360v-46Z"/>
  <path fill="#fff" d="M551 240v1h1v-1h-1Zm-191 0h-1v1h1v-1Zm190-46v46h2v-46h-2Zm1 45H360v2h191v-2Zm-190 1v-46h-2v46h2Z" mask="url(#d)"/>
  <mask id="e" fill="#fff">
    <path d="M360 240h191v41a5 5 0 0 1-5 5H365a5 5 0 0 1-5-5v-41Z"/>
  </mask>
  <path fill="#000" d="M360 240h191v41a5 5 0 0 1-5 5H365a5 5 0 0 1-5-5v-41Z"/>
  <path fill="#fff" d="M360 240h191-191Zm192 41a6 6 0 0 1-6 6H365a6 6 0 0 1-6-6h2a4 4 0 0 0 4 4h181a4 4 0 0 0 4-4h2Zm-187 6a6 6 0 0 1-6-6v-41h2v41a4 4 0 0 0 4 4v2Zm187-47v41a6 6 0 0 1-6 6v-2a4 4 0 0 0 4-4v-41h2Z" mask="url(#e)"/>
  <path fill="#fff" d="M94.94 148.061a1.502 1.502 0 0 0 2.12 0l9.547-9.546a1.502 1.502 0 0 0 0-2.122 1.502 1.502 0 0 0-2.122 0L96 144.879l-8.485-8.486a1.501 1.501 0 0 0-2.122 2.122l9.546 9.546ZM94.5 46v101h3V46h-3Zm174.86 209.455h1.761v9.63c0 .995-.234 1.882-.703 2.664-.464.776-1.12 1.389-1.968 1.839-.847.445-1.841.668-2.982.668-1.142 0-2.136-.223-2.983-.668-.848-.45-1.506-1.063-1.975-1.839-.464-.782-.696-1.669-.696-2.664v-9.63h1.761v9.488c0 .71.157 1.343.469 1.896.313.55.758.983 1.335 1.3.583.313 1.279.469 2.089.469.809 0 1.505-.156 2.088-.469a3.299 3.299 0 0 0 1.335-1.3c.312-.553.469-1.186.469-1.896v-9.488ZM279.127 270h-4.489v-14.545h4.688c1.411 0 2.618.291 3.622.873 1.004.578 1.773 1.409 2.308 2.493.535 1.08.803 2.372.803 3.878 0 1.515-.27 2.819-.81 3.913a5.77 5.77 0 0 1-2.358 2.514c-1.032.583-2.287.874-3.764.874Zm-2.727-1.562h2.613c1.203 0 2.2-.233 2.99-.697a4.286 4.286 0 0 0 1.769-1.981c.388-.857.582-1.877.582-3.061 0-1.174-.192-2.185-.575-3.033-.384-.852-.956-1.505-1.719-1.96-.762-.459-1.711-.689-2.848-.689H276.4v11.421ZM289.013 270v-14.545h4.915c1.141 0 2.074.206 2.798.617.73.408 1.269.959 1.62 1.655.35.696.525 1.473.525 2.33s-.175 1.636-.525 2.336c-.346.701-.881 1.26-1.605 1.677-.725.412-1.653.618-2.785.618h-3.522v-1.563h3.466c.781 0 1.408-.135 1.882-.405.473-.27.817-.634 1.03-1.094a3.66 3.66 0 0 0 .326-1.569c0-.583-.109-1.103-.326-1.563a2.33 2.33 0 0 0-1.037-1.079c-.479-.265-1.113-.398-1.904-.398h-3.096V270h-1.762ZM74.16 224v-14.545h8.778v1.562h-7.017v4.915h6.563v1.562H75.92v4.944h7.13V224h-8.89Zm15.845.227c-.91 0-1.712-.229-2.408-.689-.696-.464-1.24-1.117-1.633-1.96-.393-.847-.59-1.849-.59-3.004 0-1.146.197-2.14.59-2.983.393-.843.94-1.494 1.64-1.953.701-.459 1.51-.689 2.43-.689.71 0 1.27.118 1.683.355.416.232.734.497.951.795.223.294.396.535.519.725h.142v-5.369h1.676V224h-1.62v-1.676h-.198c-.123.199-.299.45-.526.753-.227.298-.551.566-.973.802-.421.232-.982.348-1.683.348Zm.227-1.505c.673 0 1.24-.176 1.705-.526.464-.355.817-.845 1.058-1.47.242-.63.362-1.357.362-2.181 0-.814-.118-1.527-.355-2.137-.237-.616-.587-1.094-1.051-1.435-.464-.346-1.037-.518-1.719-.518-.71 0-1.302.182-1.775.546-.47.36-.822.85-1.059 1.471-.232.615-.348 1.306-.348 2.073 0 .777.119 1.482.356 2.117.241.63.596 1.132 1.065 1.506.473.369 1.06.554 1.761.554Zm12.479 5.596c-.81 0-1.506-.104-2.088-.312-.583-.204-1.068-.474-1.456-.81a4.436 4.436 0 0 1-.916-1.065l1.335-.938c.151.199.343.426.575.682.232.26.549.485.952.675.407.194.94.291 1.598.291.881 0 1.607-.213 2.18-.639.573-.426.86-1.094.86-2.003v-2.216h-.142a9.139 9.139 0 0 1-.526.739c-.222.288-.544.546-.966.774-.416.222-.98.334-1.69.334-.881 0-1.672-.209-2.372-.625-.696-.417-1.248-1.023-1.655-1.819-.403-.795-.604-1.761-.604-2.897 0-1.118.197-2.091.59-2.919.393-.834.94-1.478 1.64-1.932.701-.459 1.511-.689 2.429-.689.71 0 1.274.118 1.691.355.421.232.743.497.966.795.227.294.402.535.525.725h.171v-1.733h1.619v11.221c0 .938-.213 1.7-.639 2.287a3.64 3.64 0 0 1-1.705 1.3c-.71.28-1.501.419-2.372.419Zm-.057-5.994c.672 0 1.241-.154 1.705-.462.464-.308.816-.75 1.058-1.328.241-.578.362-1.269.362-2.074 0-.786-.118-1.479-.355-2.081-.237-.601-.587-1.072-1.051-1.413-.464-.341-1.037-.511-1.719-.511-.71 0-1.302.179-1.775.539-.469.36-.822.843-1.059 1.449-.232.606-.348 1.279-.348 2.017 0 .758.119 1.428.355 2.01.242.578.597 1.032 1.066 1.364.473.327 1.06.49 1.761.49Zm12.415 1.903c-1.051 0-1.958-.232-2.72-.696a4.672 4.672 0 0 1-1.755-1.96c-.407-.843-.61-1.823-.61-2.94 0-1.118.203-2.103.61-2.955.412-.857.985-1.524 1.719-2.003.739-.483 1.601-.724 2.585-.724.569 0 1.13.095 1.684.284a4.159 4.159 0 0 1 1.512.923c.455.422.817.98 1.087 1.676s.405 1.553.405 2.571v.711h-8.409v-1.449h6.704c0-.616-.123-1.165-.369-1.648a2.775 2.775 0 0 0-1.037-1.143c-.445-.28-.971-.419-1.577-.419-.667 0-1.245.165-1.733.497a3.28 3.28 0 0 0-1.115 1.278 3.762 3.762 0 0 0-.39 1.69v.966c0 .824.142 1.523.426 2.096a3.074 3.074 0 0 0 1.2 1.299c.512.294 1.106.441 1.783.441.44 0 .838-.062 1.193-.185.36-.128.67-.317.93-.568.261-.256.462-.573.604-.952l1.619.455a3.573 3.573 0 0 1-.859 1.448 4.19 4.19 0 0 1-1.491.966c-.592.228-1.257.341-1.996.341ZM66.113 168a5.144 5.144 0 0 0-.618-1.286 3.98 3.98 0 0 0-.902-.98 3.805 3.805 0 0 0-1.18-.618 4.7 4.7 0 0 0-1.448-.213c-.862 0-1.645.223-2.35.668-.706.445-1.267 1.101-1.684 1.967-.417.867-.625 1.93-.625 3.189 0 1.26.21 2.323.632 3.189.421.867.992 1.522 1.712 1.968.72.445 1.529.667 2.429.667.833 0 1.567-.177 2.201-.533a3.773 3.773 0 0 0 1.492-1.519c.36-.659.54-1.433.54-2.323l.54.114h-4.376v-1.563h5.54v1.563c0 1.198-.256 2.239-.767 3.125a5.295 5.295 0 0 1-2.102 2.059c-.89.483-1.913.725-3.068.725-1.288 0-2.42-.303-3.395-.909-.97-.606-1.728-1.468-2.273-2.585-.54-1.118-.81-2.444-.81-3.978 0-1.15.154-2.185.462-3.103.313-.924.753-1.71 1.321-2.358a5.778 5.778 0 0 1 2.017-1.492c.777-.345 1.631-.518 2.564-.518a6.45 6.45 0 0 1 2.145.348 5.739 5.739 0 0 1 1.783.973c.525.416.963.916 1.314 1.498.35.578.591 1.22.724 1.925h-1.818Zm7.903 10.256a4.44 4.44 0 0 1-1.882-.391 3.229 3.229 0 0 1-1.343-1.143c-.331-.502-.497-1.108-.497-1.819 0-.625.123-1.131.37-1.519a2.61 2.61 0 0 1 .987-.924 5.212 5.212 0 0 1 1.363-.497 16.375 16.375 0 0 1 1.513-.27c.663-.085 1.2-.149 1.612-.192.417-.047.72-.125.91-.234.194-.109.29-.298.29-.568v-.057c0-.701-.191-1.245-.575-1.633-.378-.389-.954-.583-1.725-.583-.8 0-1.428.175-1.883.526-.454.35-.774.724-.958 1.122l-1.591-.568c.284-.663.663-1.179 1.136-1.549a4.262 4.262 0 0 1 1.563-.781 6.51 6.51 0 0 1 1.676-.227c.35 0 .753.042 1.207.128.46.08.902.248 1.328.504.431.256.789.642 1.073 1.158.284.516.426 1.207.426 2.073V178H77.34v-1.477h-.086c-.113.236-.303.49-.568.76-.265.27-.618.499-1.058.689-.44.189-.978.284-1.612.284Zm.255-1.506c.663 0 1.222-.13 1.677-.391.459-.26.805-.596 1.037-1.008a2.57 2.57 0 0 0 .355-1.3v-1.534c-.071.085-.228.163-.47.234a7.695 7.695 0 0 1-.823.178c-.308.047-.608.09-.902.128-.289.033-.523.061-.703.085a6.405 6.405 0 0 0-1.222.277c-.374.123-.677.31-.909.561-.227.246-.34.582-.34 1.009 0 .582.215 1.022.646 1.321.435.293.987.44 1.654.44Zm12.548-9.659v1.42h-5.653v-1.42h5.653Zm-4.005-2.614h1.676v10.398c0 .473.069.829.206 1.065.142.232.322.389.54.469.222.076.456.114.703.114.184 0 .336-.01.454-.029l.284-.056.341 1.505a3.407 3.407 0 0 1-.476.128 3.524 3.524 0 0 1-.774.071c-.473 0-.937-.102-1.392-.305a2.767 2.767 0 0 1-1.122-.931c-.294-.416-.44-.942-.44-1.576v-10.853Zm10.983 13.75c-1.05 0-1.957-.232-2.72-.696a4.673 4.673 0 0 1-1.754-1.96c-.407-.843-.61-1.823-.61-2.94 0-1.118.203-2.103.61-2.955.412-.857.985-1.524 1.719-2.003.738-.483 1.6-.724 2.585-.724.568 0 1.13.095 1.683.284a4.167 4.167 0 0 1 1.513.923c.455.422.817.98 1.087 1.676s.404 1.553.404 2.571v.711h-8.409v-1.449h6.705c0-.616-.123-1.165-.37-1.648a2.78 2.78 0 0 0-1.036-1.143c-.445-.28-.971-.419-1.577-.419-.668 0-1.245.165-1.733.497a3.269 3.269 0 0 0-1.115 1.278 3.757 3.757 0 0 0-.39 1.69v.966c0 .824.141 1.523.425 2.096a3.072 3.072 0 0 0 1.2 1.299c.512.294 1.106.441 1.783.441.44 0 .838-.062 1.194-.185.36-.128.67-.317.93-.568.26-.256.462-.573.604-.952l1.619.455a3.585 3.585 0 0 1-.86 1.448 4.185 4.185 0 0 1-1.49.966c-.593.228-1.258.341-1.997.341Zm9.539-.227-3.324-10.909h1.761l2.358 8.352h.114l2.329-8.352h1.79l2.301 8.324h.114l2.358-8.324h1.761L111.574 178h-1.647l-2.387-8.381h-.17L104.983 178h-1.647Zm16.988.256a4.442 4.442 0 0 1-1.882-.391 3.228 3.228 0 0 1-1.342-1.143c-.331-.502-.497-1.108-.497-1.819 0-.625.123-1.131.369-1.519a2.61 2.61 0 0 1 .987-.924 5.216 5.216 0 0 1 1.364-.497 16.367 16.367 0 0 1 1.513-.27c.663-.085 1.2-.149 1.612-.192.417-.047.72-.125.909-.234.194-.109.291-.298.291-.568v-.057c0-.701-.192-1.245-.575-1.633-.379-.389-.954-.583-1.726-.583-.8 0-1.427.175-1.882.526-.455.35-.774.724-.959 1.122l-1.591-.568c.284-.663.663-1.179 1.137-1.549a4.262 4.262 0 0 1 1.562-.781 6.508 6.508 0 0 1 1.676-.227c.351 0 .753.042 1.208.128.459.08.902.248 1.328.504.431.256.788.642 1.072 1.158.284.516.426 1.207.426 2.073V178h-1.676v-1.477h-.085c-.114.236-.303.49-.568.76-.265.27-.618.499-1.058.689-.441.189-.978.284-1.613.284Zm.256-1.506c.663 0 1.222-.13 1.676-.391.459-.26.805-.596 1.037-1.008.237-.412.355-.845.355-1.3v-1.534c-.071.085-.227.163-.468.234a7.743 7.743 0 0 1-.824.178c-.308.047-.609.09-.902.128a38.62 38.62 0 0 0-.703.085 6.406 6.406 0 0 0-1.222.277c-.374.123-.677.31-.909.561-.227.246-.341.582-.341 1.009 0 .582.215 1.022.646 1.321.436.293.987.44 1.655.44Zm8.493 5.341c-.284 0-.538-.024-.76-.071a1.997 1.997 0 0 1-.462-.128l.426-1.477c.407.104.767.142 1.08.113.312-.028.589-.168.831-.419.246-.246.471-.646.674-1.2l.313-.852-4.034-10.966h1.818l3.011 8.693h.114l3.011-8.693h1.819l-4.631 12.5c-.208.563-.467 1.03-.774 1.399a2.908 2.908 0 0 1-1.073.831c-.402.18-.857.27-1.363.27ZM59.03 30V15.454h5.086c1.013 0 1.85.176 2.507.526.658.346 1.148.812 1.47 1.4a3.94 3.94 0 0 1 .483 1.938c0 .625-.11 1.141-.333 1.548-.218.408-.507.73-.867.966a3.946 3.946 0 0 1-1.158.526v.142c.445.028.893.185 1.343.469.45.284.826.691 1.129 1.221.303.53.454 1.18.454 1.946 0 .73-.165 1.385-.497 1.968-.331.582-.854 1.044-1.57 1.385-.714.34-1.645.511-2.79.511H59.03Zm1.762-1.563h3.495c1.15 0 1.967-.222 2.45-.667.488-.45.731-.994.731-1.634a2.59 2.59 0 0 0-.376-1.363 2.725 2.725 0 0 0-1.073-1.009c-.464-.255-1.013-.383-1.647-.383h-3.58v5.056Zm0-6.59h3.267a3.23 3.23 0 0 0 1.435-.313c.43-.208.772-.502 1.023-.88.255-.38.383-.825.383-1.336 0-.639-.222-1.181-.667-1.626-.446-.45-1.151-.675-2.117-.675h-3.324v4.83ZM71.812 30V19.09h1.619v1.649h.113c.2-.54.56-.978 1.08-1.314a3.178 3.178 0 0 1 1.761-.505 17.945 17.945 0 0 1 .881.028v1.705a4.973 4.973 0 0 0-.39-.063 3.839 3.839 0 0 0-.633-.05c-.53 0-1.003.111-1.42.334-.412.217-.739.52-.98.909a2.45 2.45 0 0 0-.355 1.314V30H71.81Zm11.54.227c-.984 0-1.848-.234-2.592-.703-.738-.469-1.316-1.124-1.733-1.967-.412-.843-.618-1.828-.618-2.955 0-1.136.206-2.128.618-2.976.417-.847.995-1.505 1.733-1.974.744-.469 1.608-.703 2.593-.703.985 0 1.846.234 2.585.703.743.469 1.32 1.127 1.733 1.974.416.848.625 1.84.625 2.976 0 1.127-.209 2.112-.625 2.955-.412.843-.99 1.498-1.733 1.967-.739.469-1.6.703-2.585.703Zm0-1.505c.749 0 1.364-.192 1.847-.576.483-.383.84-.887 1.073-1.512a5.792 5.792 0 0 0 .348-2.032 5.85 5.85 0 0 0-.348-2.038 3.433 3.433 0 0 0-1.073-1.527c-.483-.388-1.098-.582-1.846-.582s-1.364.194-1.847.582c-.483.388-.84.897-1.072 1.527a5.851 5.851 0 0 0-.348 2.038c0 .73.116 1.407.348 2.032.232.625.59 1.129 1.072 1.512.483.384 1.099.576 1.847.576ZM92.956 30 89.63 19.09h1.761l2.358 8.353h.114l2.33-8.352h1.79l2.3 8.324h.114l2.358-8.324h1.761L101.194 30h-1.648l-2.387-8.38h-.17L94.603 30h-1.648Zm21.506-8.466-1.506.426a2.796 2.796 0 0 0-.419-.731 2.032 2.032 0 0 0-.739-.597c-.312-.156-.712-.234-1.2-.234-.668 0-1.224.154-1.669.461-.44.303-.661.69-.661 1.158 0 .417.152.746.455.987.303.242.776.443 1.42.604l1.62.398c.975.236 1.702.599 2.18 1.086.478.483.717 1.106.717 1.868 0 .625-.179 1.184-.539 1.676-.355.493-.853.881-1.492 1.165-.639.284-1.382.426-2.23.426-1.113 0-2.034-.241-2.763-.724-.729-.483-1.191-1.189-1.385-2.117l1.591-.397c.152.587.438 1.027.86 1.32.426.294.982.441 1.669.441.781 0 1.401-.166 1.86-.497.464-.336.696-.739.696-1.207 0-.38-.132-.697-.397-.952-.265-.26-.673-.455-1.222-.583l-1.818-.426c-.999-.236-1.733-.604-2.202-1.1-.464-.502-.696-1.13-.696-1.883 0-.615.173-1.16.519-1.633.35-.474.826-.845 1.427-1.115.606-.27 1.293-.405 2.06-.405 1.079 0 1.927.237 2.543.71a3.839 3.839 0 0 1 1.321 1.875Zm7.295 8.693c-1.051 0-1.957-.232-2.72-.696a4.675 4.675 0 0 1-1.754-1.96c-.407-.843-.611-1.823-.611-2.94 0-1.118.204-2.103.611-2.955.412-.857.985-1.524 1.719-2.003.738-.483 1.6-.724 2.585-.724a5.17 5.17 0 0 1 1.683.284c.554.19 1.058.497 1.513.923.455.422.817.98 1.087 1.676.269.696.404 1.553.404 2.571v.71h-8.409v-1.448h6.705c0-.616-.123-1.165-.369-1.648a2.792 2.792 0 0 0-1.037-1.143c-.445-.28-.971-.42-1.577-.42-.668 0-1.245.166-1.733.498a3.266 3.266 0 0 0-1.115 1.278 3.762 3.762 0 0 0-.391 1.69v.966c0 .824.142 1.523.426 2.096a3.072 3.072 0 0 0 1.201 1.3c.511.293 1.105.44 1.782.44.441 0 .838-.062 1.194-.185.359-.128.67-.317.93-.568.26-.256.462-.573.604-.952l1.619.455a3.59 3.59 0 0 1-.859 1.448c-.403.412-.9.734-1.492.966-.592.228-1.257.341-1.996.341Zm7.067-.227V19.09h1.619v1.649h.114c.199-.54.559-.978 1.08-1.314a3.175 3.175 0 0 1 1.761-.505 17.945 17.945 0 0 1 .881.028v1.705a4.979 4.979 0 0 0-.391-.063 3.834 3.834 0 0 0-.632-.05 2.96 2.96 0 0 0-1.42.334c-.412.217-.739.52-.981.909a2.456 2.456 0 0 0-.355 1.314V30h-1.676ZM75.64 270h-4.488v-14.545h4.688c1.41 0 2.618.291 3.622.873 1.003.578 1.773 1.409 2.308 2.493.535 1.08.802 2.372.802 3.878 0 1.515-.27 2.819-.81 3.913a5.768 5.768 0 0 1-2.357 2.514c-1.032.583-2.287.874-3.764.874Zm-2.727-1.562h2.614c1.203 0 2.2-.233 2.99-.697a4.287 4.287 0 0 0 1.769-1.981c.388-.857.582-1.877.582-3.061 0-1.174-.192-2.185-.575-3.033-.384-.852-.957-1.505-1.72-1.96-.761-.459-1.71-.689-2.847-.689h-2.813v11.421Zm24.148-12.983V270h-1.705l-7.926-11.42h-.142V270h-1.761v-14.545h1.704l7.955 11.448h.142v-11.448h1.733ZM100.586 270v-14.545h8.778v1.562h-7.017v4.915h6.562v1.562h-6.562v4.944h7.131V270h-8.892Zm11.157-12.983v-1.562h10.909v1.562h-4.574V270h-1.761v-12.983h-4.574ZM434.16 224v-14.545h8.778v1.562h-7.017v4.915h6.563v1.562h-6.563v4.944h7.131V224h-8.892Zm15.845.227c-.909 0-1.712-.229-2.408-.689-.696-.464-1.24-1.117-1.633-1.96-.393-.847-.59-1.849-.59-3.004 0-1.146.197-2.14.59-2.983.393-.843.94-1.494 1.64-1.953.701-.459 1.511-.689 2.429-.689.711 0 1.272.118 1.684.355.416.232.734.497.951.795.223.294.396.535.519.725h.142v-5.369h1.676V224h-1.619v-1.676h-.199c-.123.199-.299.45-.526.753-.227.298-.551.566-.973.802-.421.232-.982.348-1.683.348Zm.227-1.505c.673 0 1.241-.176 1.705-.526.464-.355.817-.845 1.058-1.47.242-.63.362-1.357.362-2.181 0-.814-.118-1.527-.355-2.137-.237-.616-.587-1.094-1.051-1.435-.464-.346-1.037-.518-1.719-.518-.71 0-1.302.182-1.775.546-.469.36-.822.85-1.059 1.471-.232.615-.348 1.306-.348 2.073 0 .777.119 1.482.356 2.117.241.63.596 1.132 1.065 1.506.473.369 1.06.554 1.761.554Zm12.479 5.596c-.81 0-1.506-.104-2.088-.312-.583-.204-1.068-.474-1.456-.81a4.417 4.417 0 0 1-.916-1.065l1.335-.938c.151.199.343.426.575.682.232.26.549.485.952.675.407.194.94.291 1.598.291.881 0 1.607-.213 2.18-.639.573-.426.86-1.094.86-2.003v-2.216h-.142a9.139 9.139 0 0 1-.526.739c-.222.288-.544.546-.966.774-.416.222-.98.334-1.69.334-.881 0-1.672-.209-2.372-.625-.696-.417-1.248-1.023-1.655-1.819-.403-.795-.604-1.761-.604-2.897 0-1.118.197-2.091.59-2.919.393-.834.94-1.478 1.64-1.932.701-.459 1.511-.689 2.429-.689.71 0 1.274.118 1.691.355.421.232.743.497.966.795.227.294.402.535.525.725h.171v-1.733h1.619v11.221c0 .938-.213 1.7-.639 2.287a3.64 3.64 0 0 1-1.705 1.3c-.71.28-1.501.419-2.372.419Zm-.057-5.994c.672 0 1.241-.154 1.705-.462.464-.308.816-.75 1.058-1.328.241-.578.362-1.269.362-2.074 0-.786-.118-1.479-.355-2.081-.237-.601-.587-1.072-1.051-1.413-.464-.341-1.037-.511-1.719-.511-.71 0-1.302.179-1.775.539-.469.36-.822.843-1.059 1.449-.232.606-.348 1.279-.348 2.017 0 .758.119 1.428.355 2.01.242.578.597 1.032 1.066 1.364.473.327 1.06.49 1.761.49Zm12.415 1.903c-1.051 0-1.958-.232-2.72-.696a4.672 4.672 0 0 1-1.755-1.96c-.407-.843-.61-1.823-.61-2.94 0-1.118.203-2.103.61-2.955.412-.857.985-1.524 1.719-2.003.739-.483 1.601-.724 2.585-.724.569 0 1.13.095 1.684.284a4.159 4.159 0 0 1 1.512.923c.455.422.817.98 1.087 1.676s.405 1.553.405 2.571v.711h-8.409v-1.449h6.704c0-.616-.123-1.165-.369-1.648a2.775 2.775 0 0 0-1.037-1.143c-.445-.28-.971-.419-1.577-.419-.667 0-1.245.165-1.733.497a3.28 3.28 0 0 0-1.115 1.278 3.762 3.762 0 0 0-.39 1.69v.966c0 .824.142 1.523.426 2.096a3.074 3.074 0 0 0 1.2 1.299c.512.294 1.106.441 1.783.441.44 0 .838-.062 1.193-.185.36-.128.67-.317.93-.568.261-.256.462-.573.604-.952l1.619.455a3.573 3.573 0 0 1-.859 1.448 4.19 4.19 0 0 1-1.491.966c-.592.228-1.257.341-1.996.341ZM429.446 178l-3.977-14.545h1.79l3.04 11.846h.142l3.096-11.846h1.989l3.097 11.846h.142l3.039-11.846h1.79L439.617 178h-1.818l-3.211-11.591h-.113L431.265 178h-1.819Zm15.806 0h-1.846l5.341-14.545h1.818L455.906 178h-1.847l-4.346-12.244h-.114L445.252 178Zm.682-5.682h7.443v1.563h-7.443v-1.563Zm20.192-5.227a2.227 2.227 0 0 0-1.037-1.676c-.606-.398-1.349-.597-2.23-.597-.644 0-1.207.104-1.69.313-.479.208-.853.494-1.122.859a2.056 2.056 0 0 0-.398 1.243c0 .388.092.722.277 1.001.189.275.431.505.724.689.294.18.602.329.924.448.321.113.617.206.887.277l1.478.397c.378.1.8.237 1.264.412.469.176.916.415 1.342.718a3.65 3.65 0 0 1 1.065 1.15c.28.469.419 1.044.419 1.726a3.83 3.83 0 0 1-.617 2.131c-.408.634-1.004 1.139-1.79 1.513-.781.374-1.731.561-2.848.561-1.042 0-1.944-.168-2.706-.505-.758-.336-1.354-.805-1.79-1.406-.431-.601-.675-1.3-.731-2.095h1.818c.047.549.232 1.004.554 1.364.326.355.738.62 1.235.795a4.992 4.992 0 0 0 1.62.256c.672 0 1.276-.109 1.811-.327.535-.222.959-.53 1.271-.923.313-.398.469-.862.469-1.392 0-.483-.135-.876-.405-1.179-.27-.303-.625-.549-1.065-.739a11.257 11.257 0 0 0-1.428-.497l-1.79-.511c-1.136-.327-2.036-.793-2.698-1.4-.663-.606-.995-1.399-.995-2.379 0-.814.22-1.524.661-2.13.445-.611 1.041-1.085 1.79-1.421.752-.341 1.593-.511 2.521-.511.937 0 1.771.168 2.5.504.729.331 1.307.786 1.733 1.364.431.577.658 1.233.682 1.967h-1.705Zm4.799-3.636h2.103l4.943 12.073h.17l4.944-12.073h2.102V178h-1.648v-11.051h-.142L478.852 178h-1.591l-4.546-11.051h-.142V178h-1.648v-14.545ZM434.641 270h-4.489v-14.545h4.687c1.411 0 2.619.291 3.623.873 1.003.578 1.773 1.409 2.308 2.493.535 1.08.802 2.372.802 3.878 0 1.515-.269 2.819-.809 3.913a5.77 5.77 0 0 1-2.358 2.514c-1.032.583-2.287.874-3.764.874Zm-2.728-1.562h2.614c1.203 0 2.199-.233 2.99-.697a4.292 4.292 0 0 0 1.769-1.981c.388-.857.582-1.877.582-3.061 0-1.174-.192-2.185-.575-3.033-.384-.852-.957-1.505-1.719-1.96-.762-.459-1.712-.689-2.848-.689h-2.813v11.421Zm24.148-12.983V270h-1.704l-7.927-11.42h-.142V270h-1.761v-14.545h1.705l7.954 11.448h.142v-11.448h1.733ZM459.586 270v-14.545h8.778v1.562h-7.017v4.915h6.562v1.562h-6.562v4.944h7.131V270h-8.892Zm11.157-12.983v-1.562h10.909v1.562h-4.574V270h-1.761v-12.983h-4.574Zm-110.682 7.044a1.502 1.502 0 0 0 0-2.122l-9.546-9.546a1.502 1.502 0 0 0-2.122 0 1.502 1.502 0 0 0 0 2.122l8.486 8.485-8.486 8.485a1.502 1.502 0 0 0 0 2.122 1.502 1.502 0 0 0 2.122 0l9.546-9.546ZM300 264.5h59v-3h-59v3Zm-109.061-2.561a1.502 1.502 0 0 0 0 2.122l9.546 9.546a1.502 1.502 0 0 0 2.122 0 1.502 1.502 0 0 0 0-2.122L194.121 263l8.486-8.485a1.502 1.502 0 0 0 0-2.122 1.502 1.502 0 0 0-2.122 0l-9.546 9.546ZM258 261.5h-66v3h66v-3Z"/>
</svg>
